<?xml version="1.0" encoding="utf-8"?>
<!-- Generator: Adobe Illustrator 26.2.1, SVG Export Plug-In . SVG Version: 6.00 Build 0)  -->
<svg version="1.1" id="Capa_1" xmlns="http://www.w3.org/2000/svg" xmlns:xlink="http://www.w3.org/1999/xlink" x="0px" y="0px"
	 viewBox="0 0 500 383" style="enable-background:new 0 0 500 383;" xml:space="preserve">
<style type="text/css">
	.st0{fill:url(#Intersection_1_00000019658464094658232430000003755530468956760509_);}
	.st1{fill:#FFFFFF;}
	.st2{fill:#FFD334;}
</style>
<linearGradient id="Intersection_1_00000143590673085347421420000013304174428879779989_" gradientUnits="userSpaceOnUse" x1="-707.0797" y1="730.1613" x2="-707.0837" y2="730.8223" gradientTransform="matrix(500 0 0 -383 353791 280008)">
	<stop  offset="0" style="stop-color:#FFFFFF"/>
	<stop  offset="1" style="stop-color:#94C9FF"/>
</linearGradient>
<path id="Intersection_1" style="fill:url(#Intersection_1_00000143590673085347421420000013304174428879779989_);" d="M0,383V42
	C0,18.8,18.8,0,42,0h416c23.2,0,42,18.8,42,42v341H0z"/>
<g id="cloud2-2" transform="translate(581 144)">
	<path id="Rectangle_8-2" class="st1" d="M-209-73.5h73c13.8,0,25,11.2,25,25l0,0c0,13.8-11.2,25-25,25h-73c-13.8,0-25-11.2-25-25
		l0,0C-234-62.3-222.8-73.5-209-73.5z"/>
	<ellipse id="Ellipse_5-2" class="st1" cx="-201" cy="-82" rx="29" ry="28.5"/>
	<ellipse id="Ellipse_6-2" class="st1" cx="-161" cy="-63" rx="29" ry="28.5"/>
</g>
<g id="sun" transform="translate(979 267)">
	<circle class="st2" cx="-843.7" cy="-153" r="77.5"/>
	<circle class="st2" cx="-843.7" cy="-153" r="72.5"/>
</g>
<path id="Intersection_2" class="st1" d="M418.7,298c-19.1,0-34.9-14.9-35.9-34c-1.1-19.9,14.1-36.8,33.9-38c0.2-0.5,0.4-1,0.6-1.4
	c9.3-21,33.9-30.4,54.9-21c4.5-16.5,18.6-28.5,35.6-30.4V298H418.7z"/>
<circle class="st1" cx="19.6" cy="153.6" r="4.1"/>
<circle class="st1" cx="4.1" cy="195.6" r="4.1"/>
<circle class="st1" cx="265.4" cy="114" r="13"/>
<circle class="st1" cx="255.7" cy="156.8" r="3.2"/>
<circle class="st1" cx="244.5" cy="62" r="6.5"/>
<rect x="51.2" y="113.4" transform="matrix(0.866 0.5 -0.5 0.866 75.1117 -17.094)" class="st2" width="36.5" height="36.5"/>
<rect x="44.5" y="77.2" transform="matrix(0.6448 0.7643 -0.7643 0.6448 95.2886 -14.0592)" class="st2" width="36.5" height="36.5"/>
<rect x="60.4" y="43.7" transform="matrix(-0.1567 0.9876 -0.9876 -0.1567 152.224 -5.9743)" class="st2" width="36.5" height="36.5"/>
<rect x="98" y="23.2" transform="matrix(-0.6167 0.7872 -0.7872 -0.6167 220.6584 -24.4367)" class="st2" width="36.5" height="36.5"/>
<rect x="142.5" y="23.2" transform="matrix(-0.866 0.5 -0.5 -0.866 320.7339 -2.9404)" class="st2" width="36.5" height="36.5"/>
<rect x="174.8" y="40.9" transform="matrix(-0.9965 8.309650e-02 -8.309650e-02 -0.9965 390.369 101.9662)" class="st2" width="36.5" height="36.5"/>
<rect x="195.7" y="72.2" transform="matrix(-0.9095 -0.4157 0.4157 -0.9095 371.0148 261.7656)" class="st2" width="36.5" height="36.5"/>
<path class="st1" d="M27.2,206.6H272c0,0,14.5-28,0-35.3c-14.5-7.3-32.2,0-32.2,0s14.5-80.9-48.7-92.3s-84,27-95.4,63.8
	c0,0-31.1-16.1-55,3.6S27.2,206.6,27.2,206.6z"/>
</svg>
