<?xml version="1.0" encoding="utf-8"?>
<!-- Generator: Adobe Illustrator 26.2.1, SVG Export Plug-In . SVG Version: 6.00 Build 0)  -->
<svg version="1.1" id="Capa_1" xmlns="http://www.w3.org/2000/svg" xmlns:xlink="http://www.w3.org/1999/xlink" x="0px" y="0px"
	 viewBox="0 0 500 383" style="enable-background:new 0 0 500 383;" xml:space="preserve">
<style type="text/css">
	.st0{fill:url(#Intersection_1_00000159468455872229006220000007338582610291843206_);}
	.st1{fill:url(#SVGID_1_);}
	.st2{fill:url(#SVGID_00000061444739668766817190000009961073258235042735_);}
	.st3{fill:url(#SVGID_00000143582359971925388040000011424014415280704906_);}
	.st4{fill:url(#SVGID_00000158026513986598419440000007527072651433083796_);}
	.st5{fill:url(#SVGID_00000005955437722831968240000007898153993287215501_);}
	.st6{fill:url(#SVGID_00000080925465207085176880000017645156927921974437_);}
	.st7{fill:url(#SVGID_00000134243316343525284440000009689420879005330817_);}
	.st8{fill:url(#SVGID_00000113330336506926555970000000302658165132000653_);}
	.st9{fill:url(#SVGID_00000051385726326312971500000016992131101683058059_);}
	.st10{fill:url(#SVGID_00000051357572122999237640000016472677946055828927_);}
	.st11{fill:url(#SVGID_00000048482365417701225350000012710674700898271652_);}
	.st12{fill:url(#SVGID_00000152225250428933855230000007577893195638354602_);}
	.st13{fill:url(#SVGID_00000116930501374427603080000005275193146351610770_);}
	.st14{fill:url(#SVGID_00000134954202670361617910000015511644458236143543_);}
	.st15{fill:url(#SVGID_00000161613380027571079500000008934586292104590245_);}
	.st16{fill:url(#SVGID_00000140726871804795021230000014651001810626777509_);}
	.st17{fill:url(#SVGID_00000091729768494037536560000014934596732657927044_);}
	.st18{fill:url(#SVGID_00000063605460102247157370000010185583058073326263_);}
	.st19{fill:url(#SVGID_00000103232226927861238570000010499969387555586492_);}
	.st20{fill:url(#SVGID_00000110464881523665354800000008242402412336611255_);}
	.st21{fill:url(#SVGID_00000149354482196400751550000006484226643941493140_);}
	.st22{fill:url(#SVGID_00000164489385182891862160000003585898635695287959_);}
	.st23{fill:url(#SVGID_00000062889815368140922200000002833184479534756273_);}
	.st24{fill:url(#SVGID_00000106109010369917615370000012596954663665345212_);}
	.st25{fill:url(#SVGID_00000016794781070561629550000011398609065488998796_);}
	.st26{fill:url(#SVGID_00000034800323493782373870000017690346609618676378_);}
	.st27{fill:url(#SVGID_00000099640723480985164390000010074153509304814976_);}
	.st28{fill:url(#SVGID_00000123413688812305317450000005348935949841381525_);}
	.st29{fill:url(#SVGID_00000060711904474536788010000010100136562187975575_);}
	.st30{fill:url(#SVGID_00000078735025927336271770000012882963250961878156_);}
	.st31{fill:url(#SVGID_00000026134577303502565700000008563597334780750504_);}
	.st32{fill:url(#SVGID_00000137110701441663803830000008909677843301191810_);}
	.st33{fill:url(#SVGID_00000003065779097354263850000012967056826146487229_);}
	.st34{fill:url(#SVGID_00000169557833893783194710000015837363144774280615_);}
	.st35{fill:url(#SVGID_00000085245619504480463580000000336144649460504969_);}
	.st36{fill:url(#SVGID_00000018219051582485759870000011901772251310197689_);}
	.st37{fill:url(#SVGID_00000147934613586845578750000017193520794729262010_);}
	.st38{fill:url(#SVGID_00000091738216322064546630000010750828471462174083_);}
	.st39{fill:url(#SVGID_00000040575549637690902940000012382911966475896499_);}
	.st40{fill:url(#SVGID_00000035499290755365849480000012008987573381609400_);}
	.st41{fill:url(#SVGID_00000170263948351426745040000011696549139001082260_);}
	.st42{fill:url(#SVGID_00000121970440213778105860000007010372378540442254_);}
	.st43{fill:url(#SVGID_00000163789948293106219480000012113193949533329316_);}
	.st44{fill:url(#SVGID_00000096751125551982166590000002792298125762775991_);}
	.st45{fill:url(#SVGID_00000145034739299402399800000000353424173201769881_);}
	.st46{fill:url(#SVGID_00000111191057665563442310000012840027198081784228_);}
	.st47{fill:url(#SVGID_00000134213314752483386180000016957664604869518780_);}
	.st48{fill:url(#SVGID_00000044165489177126914160000010656675842203023246_);}
	.st49{fill:url(#SVGID_00000059270457184893121960000013592519679694795177_);}
	.st50{fill:url(#SVGID_00000031207419697968156550000013613106173619883137_);}
	.st51{fill:url(#SVGID_00000160908684749782487670000014127725264829043072_);}
	.st52{fill:url(#SVGID_00000078012564422617064970000003690963100738413198_);}
	.st53{fill:url(#SVGID_00000109733095147990007790000013983142184534056584_);}
	.st54{fill:url(#SVGID_00000160159534386939980310000005490242428772475785_);}
	.st55{fill:url(#SVGID_00000062176057989148839220000009270740693993850776_);}
	.st56{fill:url(#SVGID_00000003067104581599354580000012993561151710245516_);}
	.st57{fill:url(#SVGID_00000000935717846933781500000008316722780395732918_);}
	.st58{fill:url(#SVGID_00000051360355146777131760000012757072777043505332_);}
	.st59{fill:url(#SVGID_00000002351149694527497390000006874289161828690308_);}
	.st60{fill:url(#SVGID_00000166674382089251885800000009018508725899313046_);}
	.st61{fill:url(#SVGID_00000116236471100466238060000007303453169631747732_);}
	.st62{fill:url(#SVGID_00000162314965290841075860000016311186082888946318_);}
	.st63{fill:url(#SVGID_00000016767258986773553830000002652969129727100851_);}
	.st64{fill:url(#SVGID_00000021099714406009741340000010326237916348197519_);}
	.st65{fill:url(#SVGID_00000092433957414765075630000009822162204314037946_);}
	.st66{fill:url(#SVGID_00000181058098657806868220000002673708622494591894_);}
	.st67{fill:url(#SVGID_00000173152657821793673040000000208076669638658947_);}
	.st68{opacity:0.72;}
	.st69{fill:#E6E6E6;}
	.st70{opacity:0.5;}
	.st71{fill:url(#SVGID_00000149378427759144588340000014793546474790430352_);}
	.st72{fill:url(#SVGID_00000099663981756886442600000007479115987264254609_);}
	.st73{fill:url(#SVGID_00000031897685225843199510000008439146436403517600_);}
	.st74{fill:url(#SVGID_00000107575859415110233220000006302898997995291282_);}
	.st75{fill:url(#SVGID_00000004524774887216784180000008561471722688062650_);}
	.st76{fill:url(#SVGID_00000023272676425577840970000001862279537426992296_);}
	.st77{fill:url(#SVGID_00000033369762636827023810000006334845166838638500_);}
	.st78{fill:url(#SVGID_00000132789219119971849220000000384753000191373976_);}
	
		.st79{clip-path:url(#SVGID_00000015318528152956323820000005525876879396752311_);fill:url(#SVGID_00000056409190496842148320000007920024916095365540_);}
	
		.st80{clip-path:url(#Intersection_2_00000003106092191048240290000016942652639231015572_);fill:url(#SVGID_00000036973078797154710250000017521992589166591367_);}
</style>
<linearGradient id="Intersection_1_00000133490164035713267330000014862484608202351770_" gradientUnits="userSpaceOnUse" x1="-707.0797" y1="730.1613" x2="-707.0837" y2="730.8223" gradientTransform="matrix(500 0 0 -383 353791 280008)">
	<stop  offset="0" style="stop-color:#FFFFFF"/>
	<stop  offset="1" style="stop-color:#061721"/>
</linearGradient>
<path id="Intersection_1" style="fill:url(#Intersection_1_00000133490164035713267330000014862484608202351770_);" d="M0,383V42
	C0,18.8,18.8,0,42,0h416c23.2,0,42,18.8,42,42v341H0z"/>
<g>
	<g>
		
			<radialGradient id="SVGID_1_" cx="466.1428" cy="194.1875" r="9.9687" gradientTransform="matrix(-0.8206 0.5715 0.5715 0.8206 499.6554 -207.0862)" gradientUnits="userSpaceOnUse">
			<stop  offset="0.1091" style="stop-color:#FFFFFF"/>
			<stop  offset="1" style="stop-color:#393939"/>
		</radialGradient>
		<polygon class="st1" points="228.7,217.4 229,213.8 228.1,217.3 222.4,210.5 226.9,218.2 223.2,217.8 226.7,218.8 219.9,224.4 
			227.6,219.9 227.3,223.7 228.2,220.1 233.8,226.8 229.4,219.2 233.1,219.6 229.5,218.6 236.3,213 		"/>
		
			<radialGradient id="SVGID_00000183938991526672929520000014607720858436973207_" cx="389.4258" cy="124.046" r="8.6005" gradientTransform="matrix(-0.8206 0.5715 0.5715 0.8206 499.6554 -207.0862)" gradientUnits="userSpaceOnUse">
			<stop  offset="0.1091" style="stop-color:#FFFFFF"/>
			<stop  offset="1" style="stop-color:#393939"/>
		</radialGradient>
		<polygon style="fill:url(#SVGID_00000183938991526672929520000014607720858436973207_);" points="251.5,116.2 251.8,113 
			251,116.1 246.1,110.2 249.9,116.8 246.7,116.5 249.8,117.3 243.9,122.2 250.6,118.3 250.2,121.6 251.1,118.5 255.9,124.3 
			252.1,117.8 255.3,118.1 252.1,117.2 258,112.3 		"/>
		
			<radialGradient id="SVGID_00000181058015383704406490000015617450573066506642_" cx="399.083" cy="150.2606" r="6.0439" gradientTransform="matrix(-0.8206 0.5715 0.5715 0.8206 499.6554 -207.0862)" gradientUnits="userSpaceOnUse">
			<stop  offset="0.1091" style="stop-color:#FFFFFF"/>
			<stop  offset="1" style="stop-color:#393939"/>
		</radialGradient>
		<polygon style="fill:url(#SVGID_00000181058015383704406490000015617450573066506642_);" points="258.4,143.5 258.6,141.3 
			258,143.5 254.6,139.3 257.3,144 255.1,143.8 257.2,144.3 253.1,147.7 257.7,145 257.5,147.3 258.1,145.1 261.5,149.3 
			258.8,144.6 261.1,144.9 258.9,144.3 263,140.8 		"/>
		
			<radialGradient id="SVGID_00000091010435944849740400000000709949402919796909_" cx="352.3227" cy="70.7711" r="6.4981" gradientTransform="matrix(-0.8206 0.5715 0.5715 0.8206 499.6554 -207.0862)" gradientUnits="userSpaceOnUse">
			<stop  offset="0.1091" style="stop-color:#FFFFFF"/>
			<stop  offset="1" style="stop-color:#393939"/>
		</radialGradient>
		<polygon style="fill:url(#SVGID_00000091010435944849740400000000709949402919796909_);" points="251.4,51.5 251.6,49.1 251,51.5 
			247.3,47 250.2,52 247.8,51.8 250.1,52.4 245.7,56.1 250.7,53.2 250.4,55.6 251,53.3 254.7,57.7 251.8,52.7 254.2,52.9 
			251.9,52.3 256.3,48.6 		"/>
		
			<radialGradient id="SVGID_00000060019818266724244560000004438851260273587370_" cx="367.4318" cy="96.1348" r="11.5587" gradientTransform="matrix(-0.8206 0.5715 0.5715 0.8206 499.6554 -207.0862)" gradientUnits="userSpaceOnUse">
			<stop  offset="0.1091" style="stop-color:#FFFFFF"/>
			<stop  offset="1" style="stop-color:#393939"/>
		</radialGradient>
		<polygon style="fill:url(#SVGID_00000060019818266724244560000004438851260273587370_);" points="253.7,80.3 254.1,76.1 253,80.2 
			246.5,72.3 251.7,81.2 247.4,80.8 251.5,81.9 243.6,88.4 252.5,83.2 252.1,87.6 253.2,83.4 259.7,91.3 254.6,82.5 258.9,82.9 
			254.6,81.7 262.6,75.2 		"/>
		
			<radialGradient id="SVGID_00000158713573181695619310000000873737091007896193_" cx="603.8224" cy="417.9892" r="12.6808" gradientTransform="matrix(0.8569 -0.5155 -0.5155 -0.8569 -261.1047 802.027)" gradientUnits="userSpaceOnUse">
			<stop  offset="0" style="stop-color:#FFFFFF"/>
			<stop  offset="0.6727" style="stop-color:#393939"/>
		</radialGradient>
		<polygon style="fill:url(#SVGID_00000158713573181695619310000000873737091007896193_);" points="40,134.2 39.3,138.7 40.8,134.3 
			47.4,143.4 42.4,133.3 47,134.1 42.6,132.6 51.7,126 41.6,131 42.3,126.3 40.8,130.8 34.3,121.7 39.3,131.7 34.6,131 39.1,132.5 
			30,139.1 		"/>
		
			<radialGradient id="SVGID_00000029738866893880111430000017374717962263223740_" cx="578.0349" cy="367.881" r="8.2344" gradientTransform="matrix(0.9585 -0.2849 -0.2849 -0.9585 -408.3999 692.9157)" gradientUnits="userSpaceOnUse">
			<stop  offset="0" style="stop-color:#FFFFFF"/>
			<stop  offset="0.6727" style="stop-color:#393939"/>
		</radialGradient>
		<polygon style="fill:url(#SVGID_00000029738866893880111430000017374717962263223740_);" points="40.1,176.5 38.8,179.2 
			40.5,176.7 43.2,183.5 41.7,176.3 44.5,177.6 42,175.9 48.7,173.3 41.6,174.8 42.8,171.9 41.1,174.5 38.5,167.7 40,174.8 
			37.2,173.6 39.8,175.3 32.9,178 		"/>
		
			<radialGradient id="SVGID_00000098196848346166982110000002756321244849745810_" cx="579.076" cy="348.7699" r="4.9918" gradientTransform="matrix(0.9585 -0.2849 -0.2849 -0.9585 -408.3999 692.9157)" gradientUnits="userSpaceOnUse">
			<stop  offset="0" style="stop-color:#FFFFFF"/>
			<stop  offset="0.6727" style="stop-color:#393939"/>
		</radialGradient>
		<polygon style="fill:url(#SVGID_00000098196848346166982110000002756321244849745810_);" points="46.8,194.2 46.1,195.8 
			47.1,194.3 48.7,198.4 47.8,194.1 49.5,194.8 48,193.8 52.1,192.2 47.7,193.1 48.5,191.4 47.5,193 45.9,188.9 46.8,193.2 
			45.1,192.4 46.6,193.5 42.5,195.1 		"/>
		
			<radialGradient id="SVGID_00000071549841025380763860000015230827448953218945_" cx="592.5921" cy="16.107" r="5.3677" gradientTransform="matrix(-0.8206 0.5715 0.5715 0.8206 499.6554 -207.0862)" gradientUnits="userSpaceOnUse">
			<stop  offset="0" style="stop-color:#FFFFFF"/>
			<stop  offset="0.6727" style="stop-color:#393939"/>
		</radialGradient>
		<polygon style="fill:url(#SVGID_00000071549841025380763860000015230827448953218945_);" points="23.1,142.2 22.6,144.1 
			19.5,140.4 21.9,144.5 19.9,144.3 21.8,144.8 18.2,147.9 22.3,145.5 22.1,147.5 22.6,145.6 25.6,149.2 23.3,145.1 25.3,145.3 
			23.3,144.8 27,141.7 22.9,144.1 		"/>
		
			<radialGradient id="SVGID_00000132085461215846608280000016498167182454592167_" cx="547.6674" cy="-2.6644" r="5.6853" gradientTransform="matrix(-0.8206 0.5715 0.5715 0.8206 499.6554 -207.0862)" gradientUnits="userSpaceOnUse">
			<stop  offset="0" style="stop-color:#FFFFFF"/>
			<stop  offset="0.6727" style="stop-color:#393939"/>
		</radialGradient>
		<polygon style="fill:url(#SVGID_00000132085461215846608280000016498167182454592167_);" points="49,103 49.2,100.9 48.7,103 
			45.5,99.1 48,103.4 45.9,103.2 47.9,103.8 44.1,107 48.4,104.4 48.2,106.6 48.8,104.5 52,108.4 49.4,104 51.6,104.2 49.5,103.7 
			53.4,100.5 		"/>
		
			<radialGradient id="SVGID_00000071526348261211921770000010546943548364019866_" cx="545.6451" cy="-14.5756" r="5.3675" gradientTransform="matrix(-0.8206 0.5715 0.5715 0.8206 499.6554 -207.0862)" gradientUnits="userSpaceOnUse">
			<stop  offset="0" style="stop-color:#FFFFFF"/>
			<stop  offset="2.528321e-02" style="stop-color:#E9E9E9"/>
			<stop  offset="9.280195e-02" style="stop-color:#B4B4B4"/>
			<stop  offset="0.1589" style="stop-color:#888888"/>
			<stop  offset="0.2223" style="stop-color:#666666"/>
			<stop  offset="0.282" style="stop-color:#4D4D4D"/>
			<stop  offset="0.3367" style="stop-color:#3E3E3E"/>
			<stop  offset="0.3818" style="stop-color:#393939"/>
		</radialGradient>
		<polygon style="fill:url(#SVGID_00000071526348261211921770000010546943548364019866_);" points="44.3,93.1 46.3,93.3 44.3,92.8 
			48,89.7 43.9,92.1 44.1,90.1 43.5,92.1 40.5,88.4 42.9,92.5 40.9,92.3 42.8,92.8 39.2,95.9 43.3,93.5 43.1,95.5 43.6,93.5 
			46.6,97.2 		"/>
		
			<radialGradient id="SVGID_00000074418042691641902640000012269647779040080042_" cx="353.3098" cy="126.0268" r="5.6856" gradientTransform="matrix(-0.8206 0.5715 0.5715 0.8206 499.6554 -207.0862)" gradientUnits="userSpaceOnUse">
			<stop  offset="0" style="stop-color:#FFFFFF"/>
			<stop  offset="2.528321e-02" style="stop-color:#E9E9E9"/>
			<stop  offset="9.280195e-02" style="stop-color:#B4B4B4"/>
			<stop  offset="0.1589" style="stop-color:#888888"/>
			<stop  offset="0.2223" style="stop-color:#666666"/>
			<stop  offset="0.282" style="stop-color:#4D4D4D"/>
			<stop  offset="0.3367" style="stop-color:#3E3E3E"/>
			<stop  offset="0.3818" style="stop-color:#393939"/>
		</radialGradient>
		<polygon style="fill:url(#SVGID_00000074418042691641902640000012269647779040080042_);" points="284.6,98.8 282.5,98.2 286.4,95 
			282.1,97.5 282.3,95.4 281.7,97.5 278.5,93.6 281,98 278.9,97.8 281,98.3 277.1,101.5 281.5,99 281.3,101.1 281.8,99 285,102.9 
			282.5,98.6 		"/>
		
			<radialGradient id="SVGID_00000060726869387268805610000008162831946454998438_" cx="517.4498" cy="-73.7273" r="12.5776" gradientTransform="matrix(-0.8206 0.5715 0.5715 0.8206 499.6554 -207.0862)" gradientUnits="userSpaceOnUse">
			<stop  offset="0.1091" style="stop-color:#FFFFFF"/>
			<stop  offset="1" style="stop-color:#393939"/>
		</radialGradient>
		<polygon style="fill:url(#SVGID_00000060726869387268805610000008162831946454998438_);" points="33.6,26.5 34.1,21.9 32.9,26.5 
			25.7,17.8 31.3,27.5 26.7,27.1 31.1,28.3 22.6,35.3 32.3,29.7 31.8,34.4 33,29.9 40.1,38.5 34.5,28.9 39.2,29.3 34.6,28.1 
			43.2,20.9 		"/>
		
			<radialGradient id="SVGID_00000107546590067435587090000001786857271018564777_" cx="509.5897" cy="-18.8371" r="8.978" gradientTransform="matrix(-0.8206 0.5715 0.5715 0.8206 499.6554 -207.0862)" gradientUnits="userSpaceOnUse">
			<stop  offset="0.1091" style="stop-color:#FFFFFF"/>
			<stop  offset="1" style="stop-color:#393939"/>
		</radialGradient>
		<polygon style="fill:url(#SVGID_00000107546590067435587090000001786857271018564777_);" points="71.2,67.5 71.5,64.3 70.7,67.5 
			65.6,61.3 69.6,68.2 66.3,67.9 69.5,68.8 63.4,73.8 70.3,69.8 69.9,73.2 70.8,70 75.9,76.1 71.9,69.2 75.2,69.5 71.9,68.7 
			78.1,63.6 		"/>
		
			<radialGradient id="SVGID_00000054974628320542582950000014831509331189644714_" cx="391.5377" cy="67.7401" r="8.9623" gradientTransform="matrix(-0.8206 0.5715 0.5715 0.8206 499.6554 -207.0862)" gradientUnits="userSpaceOnUse">
			<stop  offset="0" style="stop-color:#FFFFFF"/>
			<stop  offset="0.6727" style="stop-color:#393939"/>
		</radialGradient>
		<polygon style="fill:url(#SVGID_00000054974628320542582950000014831509331189644714_);" points="217.6,71.1 217.9,67.9 217,71.1 
			212,64.9 216,71.8 212.6,71.5 215.8,72.3 209.7,77.4 216.6,73.4 216.3,76.8 217.2,73.5 222.2,79.6 218.2,72.8 221.6,73.1 
			218.3,72.2 224.4,67.1 		"/>
		
			<radialGradient id="SVGID_00000051377631765651640390000008605041163119101847_" cx="813.1096" cy="282.9021" r="7.4151" gradientTransform="matrix(0.841 -0.541 -0.541 -0.841 -263.4642 899.0108)" gradientUnits="userSpaceOnUse">
			<stop  offset="0" style="stop-color:#FFFFFF"/>
			<stop  offset="0.6727" style="stop-color:#393939"/>
		</radialGradient>
		<polygon style="fill:url(#SVGID_00000051377631765651640390000008605041163119101847_);" points="266.9,222.1 266.5,224.8 
			267.3,222.2 271.3,227.4 268.2,221.6 270.9,222 268.4,221.2 273.5,217.2 267.7,220.3 268.1,217.5 267.3,220.1 263.3,215 
			266.4,220.7 263.6,220.4 266.3,221.2 261.1,225.2 		"/>
		
			<radialGradient id="SVGID_00000088832175621332326130000017337736616667217043_" cx="465.2801" cy="-57.2557" r="10.3884" gradientTransform="matrix(-0.8206 0.5715 0.5715 0.8206 499.6554 -207.0862)" gradientUnits="userSpaceOnUse">
			<stop  offset="0" style="stop-color:#FFFFFF"/>
			<stop  offset="2.528321e-02" style="stop-color:#E9E9E9"/>
			<stop  offset="9.280195e-02" style="stop-color:#B4B4B4"/>
			<stop  offset="0.1589" style="stop-color:#888888"/>
			<stop  offset="0.2223" style="stop-color:#666666"/>
			<stop  offset="0.282" style="stop-color:#4D4D4D"/>
			<stop  offset="0.3367" style="stop-color:#3E3E3E"/>
			<stop  offset="0.3818" style="stop-color:#393939"/>
		</radialGradient>
		<polygon style="fill:url(#SVGID_00000088832175621332326130000017337736616667217043_);" points="85.7,10.5 86.1,6.7 85.1,10.4 
			79.2,3.3 83.8,11.3 80,11 83.7,11.9 76.6,17.8 84.6,13.1 84.2,17 85.2,13.3 91.1,20.4 86.5,12.4 90.3,12.8 86.5,11.8 93.6,5.9 		
			"/>
		
			<radialGradient id="SVGID_00000133501089877777003650000010874850638997990819_" cx="440.8358" cy="9.126" r="10.3886" gradientTransform="matrix(-0.8206 0.5715 0.5715 0.8206 499.6554 -207.0862)" gradientUnits="userSpaceOnUse">
			<stop  offset="0" style="stop-color:#FFFFFF"/>
			<stop  offset="2.528321e-02" style="stop-color:#E9E9E9"/>
			<stop  offset="9.280195e-02" style="stop-color:#B4B4B4"/>
			<stop  offset="0.1589" style="stop-color:#888888"/>
			<stop  offset="0.2223" style="stop-color:#666666"/>
			<stop  offset="0.282" style="stop-color:#4D4D4D"/>
			<stop  offset="0.3367" style="stop-color:#3E3E3E"/>
			<stop  offset="0.3818" style="stop-color:#393939"/>
		</radialGradient>
		<polygon style="fill:url(#SVGID_00000133501089877777003650000010874850638997990819_);" points="144.1,47.2 143.1,51 137.2,43.8 
			141.8,51.8 138,51.5 141.7,52.4 134.6,58.3 142.6,53.6 142.2,57.5 143.2,53.8 149.1,60.9 144.5,52.9 148.3,53.3 144.5,52.3 
			151.6,46.4 143.7,51 		"/>
		
			<radialGradient id="SVGID_00000078022964107006529840000015369026374428895154_" cx="362.3434" cy="13.2329" r="8.9622" gradientTransform="matrix(-0.8206 0.5715 0.5715 0.8206 499.6554 -207.0862)" gradientUnits="userSpaceOnUse">
			<stop  offset="0" style="stop-color:#FFFFFF"/>
			<stop  offset="2.528321e-02" style="stop-color:#E9E9E9"/>
			<stop  offset="9.280195e-02" style="stop-color:#B4B4B4"/>
			<stop  offset="0.1589" style="stop-color:#888888"/>
			<stop  offset="0.2223" style="stop-color:#666666"/>
			<stop  offset="0.282" style="stop-color:#4D4D4D"/>
			<stop  offset="0.3367" style="stop-color:#3E3E3E"/>
			<stop  offset="0.3818" style="stop-color:#393939"/>
		</radialGradient>
		<polygon style="fill:url(#SVGID_00000078022964107006529840000015369026374428895154_);" points="210.4,9.7 210.7,6.4 209.8,9.7 
			204.8,3.5 208.8,10.4 205.5,10.1 208.6,10.9 202.5,16 209.4,12 209.1,15.3 210,12.1 215,18.2 211,11.4 214.4,11.7 211.1,10.8 
			217.2,5.7 		"/>
		
			<radialGradient id="SVGID_00000127754170740639274880000006450064209617936317_" cx="442.1466" cy="-14.9848" r="6.2974" gradientTransform="matrix(-0.8206 0.5715 0.5715 0.8206 499.6554 -207.0862)" gradientUnits="userSpaceOnUse">
			<stop  offset="0" style="stop-color:#FFFFFF"/>
			<stop  offset="2.528321e-02" style="stop-color:#E9E9E9"/>
			<stop  offset="9.280195e-02" style="stop-color:#B4B4B4"/>
			<stop  offset="0.1589" style="stop-color:#888888"/>
			<stop  offset="0.2223" style="stop-color:#666666"/>
			<stop  offset="0.282" style="stop-color:#4D4D4D"/>
			<stop  offset="0.3367" style="stop-color:#3E3E3E"/>
			<stop  offset="0.3818" style="stop-color:#393939"/>
		</radialGradient>
		<polygon style="fill:url(#SVGID_00000127754170740639274880000006450064209617936317_);" points="129.1,33.7 131.4,33.9 
			129.1,33.3 133.4,29.7 128.6,32.5 128.8,30.2 128.2,32.5 124.7,28.1 127.5,33 125.2,32.8 127.4,33.4 123.1,36.9 127.9,34.1 
			127.7,36.5 128.3,34.2 131.9,38.5 		"/>
		
			<radialGradient id="SVGID_00000127001725878637552490000010240179784928711087_" cx="395.2558" cy="29.5161" r="7.4154" gradientTransform="matrix(-0.8206 0.5715 0.5715 0.8206 499.6554 -207.0862)" gradientUnits="userSpaceOnUse">
			<stop  offset="0" style="stop-color:#FFFFFF"/>
			<stop  offset="2.528321e-02" style="stop-color:#E9E9E9"/>
			<stop  offset="9.280195e-02" style="stop-color:#B4B4B4"/>
			<stop  offset="0.1589" style="stop-color:#888888"/>
			<stop  offset="0.2223" style="stop-color:#666666"/>
			<stop  offset="0.282" style="stop-color:#4D4D4D"/>
			<stop  offset="0.3367" style="stop-color:#3E3E3E"/>
			<stop  offset="0.3818" style="stop-color:#393939"/>
		</radialGradient>
		<polygon style="fill:url(#SVGID_00000127001725878637552490000010240179784928711087_);" points="192.6,42.1 192.9,39.4 192.2,42 
			187.9,36.9 191.3,42.7 188.5,42.4 191.1,43.1 186.1,47.3 191.8,43.9 191.5,46.7 192.2,44.1 196.4,49.1 193.1,43.5 195.9,43.7 
			193.2,43 198.3,38.8 		"/>
	</g>
</g>
<g>
	<g>
		
			<radialGradient id="SVGID_00000121989491809180802840000013248315877900802211_" cx="366.0051" cy="502.7315" r="9.9687" gradientTransform="matrix(0.854 -0.5203 -0.5203 -0.854 363.7601 678.1688)" gradientUnits="userSpaceOnUse">
			<stop  offset="0.1091" style="stop-color:#FFFFFF"/>
			<stop  offset="1" style="stop-color:#393939"/>
		</radialGradient>
		<polygon style="fill:url(#SVGID_00000121989491809180802840000013248315877900802211_);" points="414.1,59.7 413.5,63.3 
			414.7,59.7 419.9,66.9 415.9,59 419.6,59.6 416.1,58.4 423.3,53.2 415.3,57.2 415.9,53.5 414.7,57 409.6,49.9 413.5,57.8 
			409.8,57.2 413.4,58.4 406.2,63.6 		"/>
		
			<radialGradient id="SVGID_00000107549858158624825130000005061252864627400631_" cx="289.2881" cy="432.59" r="8.6005" gradientTransform="matrix(0.854 -0.5203 -0.5203 -0.854 363.7601 678.1688)" gradientUnits="userSpaceOnUse">
			<stop  offset="0.1091" style="stop-color:#FFFFFF"/>
			<stop  offset="1" style="stop-color:#393939"/>
		</radialGradient>
		<polygon style="fill:url(#SVGID_00000107549858158624825130000005061252864627400631_);" points="385.2,159.3 384.7,162.4 
			385.7,159.4 390.2,165.6 386.8,158.7 389.9,159.2 386.9,158.2 393.1,153.8 386.2,157.2 386.7,154 385.7,157 381.2,150.9 
			384.6,157.7 381.5,157.2 384.6,158.2 378.4,162.7 		"/>
		
			<radialGradient id="SVGID_00000166670418884681375700000008837864422242788020_" cx="298.9453" cy="458.8046" r="6.0439" gradientTransform="matrix(0.854 -0.5203 -0.5203 -0.854 363.7601 678.1688)" gradientUnits="userSpaceOnUse">
			<stop  offset="0.1091" style="stop-color:#FFFFFF"/>
			<stop  offset="1" style="stop-color:#393939"/>
		</radialGradient>
		<polygon style="fill:url(#SVGID_00000166670418884681375700000008837864422242788020_);" points="379.9,131.6 379.6,133.8 
			380.3,131.6 383.5,136 381.1,131.2 383.3,131.5 381.2,130.8 385.5,127.7 380.7,130.1 381,127.8 380.3,130 377.2,125.7 
			379.6,130.4 377.3,130.1 379.5,130.8 375.2,134 		"/>
		
			<radialGradient id="SVGID_00000049919331392362290320000012397546593015147913_" cx="252.185" cy="379.3151" r="6.4981" gradientTransform="matrix(0.854 -0.5203 -0.5203 -0.854 363.7601 678.1688)" gradientUnits="userSpaceOnUse">
			<stop  offset="0.1091" style="stop-color:#FFFFFF"/>
			<stop  offset="1" style="stop-color:#393939"/>
		</radialGradient>
		<polygon style="fill:url(#SVGID_00000049919331392362290320000012397546593015147913_);" points="381.3,223.8 381,226.2 
			381.7,223.9 385.1,228.6 382.5,223.4 384.9,223.8 382.7,223 387.3,219.6 382.1,222.2 382.5,219.8 381.8,222.1 378.4,217.5 
			380.9,222.6 378.6,222.2 380.9,223 376.2,226.4 		"/>
		
			<radialGradient id="SVGID_00000014603419868303598240000014152577300693088397_" cx="267.294" cy="404.6788" r="11.5587" gradientTransform="matrix(0.854 -0.5203 -0.5203 -0.854 363.7601 678.1688)" gradientUnits="userSpaceOnUse">
			<stop  offset="0.1091" style="stop-color:#FFFFFF"/>
			<stop  offset="1" style="stop-color:#393939"/>
		</radialGradient>
		<polygon style="fill:url(#SVGID_00000014603419868303598240000014152577300693088397_);" points="380.7,194.9 380.1,199.1 
			381.4,195.1 387.5,203.4 382.9,194.2 387.1,194.8 383.1,193.5 391.3,187.5 382.1,192.1 382.8,187.8 381.4,191.9 375.4,183.6 
			380,192.7 375.8,192.1 379.9,193.5 371.6,199.5 		"/>
		
			<radialGradient id="SVGID_00000170254472605892163080000016529243797766187675_" cx="724.3153" cy="116.8145" r="12.6808" gradientTransform="matrix(-0.8868 0.4622 0.4622 0.8868 1184.7328 -282.5962)" gradientUnits="userSpaceOnUse">
			<stop  offset="0" style="stop-color:#FFFFFF"/>
			<stop  offset="0.6727" style="stop-color:#393939"/>
		</radialGradient>
		<polygon style="fill:url(#SVGID_00000170254472605892163080000016529243797766187675_);" points="597.3,154.2 598.4,149.7 
			596.6,154.1 590.6,144.5 594.9,154.9 590.3,153.9 594.6,155.7 585.2,161.6 595.6,157.3 594.5,161.9 596.3,157.6 602.3,167 
			597.9,156.7 602.5,157.7 598.1,155.9 607.7,149.9 		"/>
		
			<radialGradient id="SVGID_00000133501972094995389890000014746609549938488237_" cx="770.0042" cy="106.3739" r="8.2344" gradientTransform="matrix(-0.9741 0.2258 0.2258 0.9741 1325.0889 -164.6923)" gradientUnits="userSpaceOnUse">
			<stop  offset="0" style="stop-color:#FFFFFF"/>
			<stop  offset="0.6727" style="stop-color:#393939"/>
		</radialGradient>
		<polygon style="fill:url(#SVGID_00000133501972094995389890000014746609549938488237_);" points="599.9,112 601.2,109.3 
			599.4,111.8 597.2,104.8 598.2,112.1 595.5,110.7 597.9,112.5 591,114.7 598.3,113.6 596.9,116.4 598.7,113.9 600.9,120.8 
			599.8,113.7 602.6,115.1 600.1,113.2 607.1,111 		"/>
		
			<radialGradient id="SVGID_00000164492390963427621220000001532487665159448979_" cx="771.0453" cy="87.2629" r="4.9918" gradientTransform="matrix(-0.9741 0.2258 0.2258 0.9741 1325.0889 -164.6923)" gradientUnits="userSpaceOnUse">
			<stop  offset="0" style="stop-color:#FFFFFF"/>
			<stop  offset="0.6727" style="stop-color:#393939"/>
		</radialGradient>
		<polygon style="fill:url(#SVGID_00000164492390963427621220000001532487665159448979_);" points="594.2,93.9 595.1,92.3 
			593.9,93.8 592.6,89.6 593.2,94 591.6,93.1 593,94.2 588.8,95.6 593.2,94.9 592.4,96.6 593.5,95.1 594.8,99.3 594.2,94.9 
			595.9,95.8 594.3,94.7 598.6,93.3 		"/>
		
			<radialGradient id="SVGID_00000182514124393939052710000007482337980605054132_" cx="492.4543" cy="324.651" r="5.3677" gradientTransform="matrix(0.854 -0.5203 -0.5203 -0.854 363.7601 678.1688)" gradientUnits="userSpaceOnUse">
			<stop  offset="0" style="stop-color:#FFFFFF"/>
			<stop  offset="0.6727" style="stop-color:#393939"/>
		</radialGradient>
		<polygon style="fill:url(#SVGID_00000182514124393939052710000007482337980605054132_);" points="614.7,147.3 615.4,145.4 
			618.2,149.3 616,145 618,145.3 616.1,144.7 620,141.9 615.7,144 616,142 615.4,143.9 612.6,140.1 614.7,144.3 612.7,144 
			614.7,144.7 610.8,147.5 615,145.4 		"/>
		
			<radialGradient id="SVGID_00000020363687089469024330000016065322476401768620_" cx="447.5296" cy="305.8796" r="5.6853" gradientTransform="matrix(0.854 -0.5203 -0.5203 -0.854 363.7601 678.1688)" gradientUnits="userSpaceOnUse">
			<stop  offset="0" style="stop-color:#FFFFFF"/>
			<stop  offset="0.6727" style="stop-color:#393939"/>
		</radialGradient>
		<polygon style="fill:url(#SVGID_00000020363687089469024330000016065322476401768620_);" points="586.4,184.8 586.1,186.9 
			586.8,184.9 589.7,189 587.5,184.4 589.6,184.8 587.6,184.1 591.6,181.1 587.1,183.4 587.4,181.3 586.8,183.3 583.8,179.2 
			586.1,183.7 584,183.4 586,184.1 581.9,187.1 		"/>
		
			<radialGradient id="SVGID_00000158734189221302049150000002103751401437528462_" cx="445.5074" cy="293.9683" r="5.3675" gradientTransform="matrix(0.854 -0.5203 -0.5203 -0.854 363.7601 678.1688)" gradientUnits="userSpaceOnUse">
			<stop  offset="0" style="stop-color:#FFFFFF"/>
			<stop  offset="2.528321e-02" style="stop-color:#E9E9E9"/>
			<stop  offset="9.280195e-02" style="stop-color:#B4B4B4"/>
			<stop  offset="0.1589" style="stop-color:#888888"/>
			<stop  offset="0.2223" style="stop-color:#666666"/>
			<stop  offset="0.282" style="stop-color:#4D4D4D"/>
			<stop  offset="0.3367" style="stop-color:#3E3E3E"/>
			<stop  offset="0.3818" style="stop-color:#393939"/>
		</radialGradient>
		<polygon style="fill:url(#SVGID_00000158734189221302049150000002103751401437528462_);" points="590.6,195 588.6,194.7 
			590.5,195.3 586.7,198.1 590.9,196 590.6,197.9 591.2,196 594,199.9 591.9,195.6 593.9,195.9 592,195.3 595.8,192.5 591.6,194.7 
			591.9,192.7 591.3,194.6 588.5,190.7 		"/>
		
			<radialGradient id="SVGID_00000110445975252693715760000004841735652151326863_" cx="253.1721" cy="434.5707" r="5.6856" gradientTransform="matrix(0.854 -0.5203 -0.5203 -0.854 363.7601 678.1688)" gradientUnits="userSpaceOnUse">
			<stop  offset="0" style="stop-color:#FFFFFF"/>
			<stop  offset="2.528321e-02" style="stop-color:#E9E9E9"/>
			<stop  offset="9.280195e-02" style="stop-color:#B4B4B4"/>
			<stop  offset="0.1589" style="stop-color:#888888"/>
			<stop  offset="0.2223" style="stop-color:#666666"/>
			<stop  offset="0.282" style="stop-color:#4D4D4D"/>
			<stop  offset="0.3367" style="stop-color:#3E3E3E"/>
			<stop  offset="0.3818" style="stop-color:#393939"/>
		</radialGradient>
		<polygon style="fill:url(#SVGID_00000110445975252693715760000004841735652151326863_);" points="351,174.6 353.1,175.3 
			349,178.3 353.5,176 353.2,178.1 353.8,176.1 356.8,180.2 354.5,175.7 356.6,176 354.6,175.3 358.7,172.4 354.2,174.6 
			354.5,172.5 353.8,174.5 350.9,170.5 353.1,175 		"/>
		
			<radialGradient id="SVGID_00000065757521957582112640000005836143789599226030_" cx="417.3121" cy="234.8167" r="12.5776" gradientTransform="matrix(0.854 -0.5203 -0.5203 -0.854 363.7601 678.1688)" gradientUnits="userSpaceOnUse">
			<stop  offset="0.1091" style="stop-color:#FFFFFF"/>
			<stop  offset="1" style="stop-color:#393939"/>
		</radialGradient>
		<polygon style="fill:url(#SVGID_00000065757521957582112640000005836143789599226030_);" points="597.1,262.1 596.4,266.6 
			597.9,262.2 604.5,271.3 599.5,261.2 604.1,262 599.7,260.5 608.7,254 598.7,259 599.4,254.3 597.9,258.7 591.4,249.8 
			596.4,259.7 591.8,259 596.3,260.5 587.2,267.1 		"/>
		
			<radialGradient id="SVGID_00000034771654080569480510000015253330393335668662_" cx="409.452" cy="289.7068" r="8.978" gradientTransform="matrix(0.854 -0.5203 -0.5203 -0.854 363.7601 678.1688)" gradientUnits="userSpaceOnUse">
			<stop  offset="0.1091" style="stop-color:#FFFFFF"/>
			<stop  offset="1" style="stop-color:#393939"/>
		</radialGradient>
		<polygon style="fill:url(#SVGID_00000034771654080569480510000015253330393335668662_);" points="562.1,218.8 561.6,222.1 
			562.6,218.9 567.4,225.4 563.8,218.2 567.1,218.8 563.9,217.7 570.3,213.1 563.2,216.6 563.7,213.3 562.7,216.5 558,210.1 
			561.6,217.1 558.3,216.6 561.5,217.7 555,222.4 		"/>
		
			<radialGradient id="SVGID_00000114035395478528151630000008372101075406033844_" cx="291.3999" cy="376.2841" r="8.9623" gradientTransform="matrix(0.854 -0.5203 -0.5203 -0.854 363.7601 678.1688)" gradientUnits="userSpaceOnUse">
			<stop  offset="0" style="stop-color:#FFFFFF"/>
			<stop  offset="0.6727" style="stop-color:#393939"/>
		</radialGradient>
		<polygon style="fill:url(#SVGID_00000114035395478528151630000008372101075406033844_);" points="416.2,206.3 415.7,209.6 
			416.8,206.4 421.5,212.9 417.9,205.7 421.2,206.2 418.1,205.2 424.5,200.6 417.3,204.1 417.9,200.8 416.8,203.9 412.2,197.6 
			415.7,204.6 412.4,204.1 415.6,205.2 409.2,209.9 		"/>
		
			<radialGradient id="SVGID_00000014608713327504706590000012052344887878346170_" cx="924.5016" cy="-21.7656" r="7.4151" gradientTransform="matrix(-0.8725 0.4886 0.4886 0.8725 1193.0112 -379.2548)" gradientUnits="userSpaceOnUse">
			<stop  offset="0" style="stop-color:#FFFFFF"/>
			<stop  offset="0.6727" style="stop-color:#393939"/>
		</radialGradient>
		<polygon style="fill:url(#SVGID_00000014608713327504706590000012052344887878346170_);" points="376.3,52.6 376.8,49.9 
			375.8,52.5 372.2,47 374.9,53 372.2,52.5 374.7,53.5 369.3,57.1 375.3,54.4 374.8,57.1 375.7,54.5 379.4,60 376.7,54 379.4,54.5 
			376.8,53.6 382.2,49.9 		"/>
		
			<radialGradient id="SVGID_00000032635095389440841310000006943225162169973907_" cx="365.1424" cy="251.2882" r="10.3884" gradientTransform="matrix(0.854 -0.5203 -0.5203 -0.854 363.7601 678.1688)" gradientUnits="userSpaceOnUse">
			<stop  offset="0" style="stop-color:#FFFFFF"/>
			<stop  offset="2.528321e-02" style="stop-color:#E9E9E9"/>
			<stop  offset="9.280195e-02" style="stop-color:#B4B4B4"/>
			<stop  offset="0.1589" style="stop-color:#888888"/>
			<stop  offset="0.2223" style="stop-color:#666666"/>
			<stop  offset="0.282" style="stop-color:#4D4D4D"/>
			<stop  offset="0.3367" style="stop-color:#3E3E3E"/>
			<stop  offset="0.3818" style="stop-color:#393939"/>
		</radialGradient>
		<polygon style="fill:url(#SVGID_00000032635095389440841310000006943225162169973907_);" points="544.2,274.9 543.6,278.6 
			544.8,275 550.2,282.5 546.1,274.2 549.9,274.8 546.3,273.6 553.7,268.2 545.4,272.3 546,268.4 544.8,272.1 539.4,264.7 
			543.5,272.9 539.7,272.3 543.4,273.5 536,279 		"/>
		
			<radialGradient id="SVGID_00000129167826342035045230000018399632749953096117_" cx="340.6981" cy="317.67" r="10.3886" gradientTransform="matrix(0.854 -0.5203 -0.5203 -0.854 363.7601 678.1688)" gradientUnits="userSpaceOnUse">
			<stop  offset="0" style="stop-color:#FFFFFF"/>
			<stop  offset="2.528321e-02" style="stop-color:#E9E9E9"/>
			<stop  offset="9.280195e-02" style="stop-color:#B4B4B4"/>
			<stop  offset="0.1589" style="stop-color:#888888"/>
			<stop  offset="0.2223" style="stop-color:#666666"/>
			<stop  offset="0.282" style="stop-color:#4D4D4D"/>
			<stop  offset="0.3367" style="stop-color:#3E3E3E"/>
			<stop  offset="0.3818" style="stop-color:#393939"/>
		</radialGradient>
		<polygon style="fill:url(#SVGID_00000129167826342035045230000018399632749953096117_);" points="488.2,234.7 489.4,231 
			494.8,238.5 490.7,230.2 494.5,230.8 490.9,229.6 498.3,224.2 490,228.4 490.6,224.5 489.4,228.2 484,220.7 488.1,228.9 
			484.3,228.3 488,229.6 480.5,235 488.7,230.9 		"/>
		
			<radialGradient id="SVGID_00000067220466586376959020000014397601998076663186_" cx="262.2057" cy="321.7769" r="8.9622" gradientTransform="matrix(0.854 -0.5203 -0.5203 -0.854 363.7601 678.1688)" gradientUnits="userSpaceOnUse">
			<stop  offset="0" style="stop-color:#FFFFFF"/>
			<stop  offset="2.528321e-02" style="stop-color:#E9E9E9"/>
			<stop  offset="9.280195e-02" style="stop-color:#B4B4B4"/>
			<stop  offset="0.1589" style="stop-color:#888888"/>
			<stop  offset="0.2223" style="stop-color:#666666"/>
			<stop  offset="0.282" style="stop-color:#4D4D4D"/>
			<stop  offset="0.3367" style="stop-color:#3E3E3E"/>
			<stop  offset="0.3818" style="stop-color:#393939"/>
		</radialGradient>
		<polygon style="fill:url(#SVGID_00000067220466586376959020000014397601998076663186_);" points="419.7,268.1 419.2,271.3 
			420.2,268.1 424.9,274.6 421.3,267.5 424.6,268 421.5,266.9 427.9,262.3 420.8,265.9 421.3,262.5 420.2,265.7 415.6,259.3 
			419.1,266.4 415.8,265.8 419,266.9 412.6,271.6 		"/>
		
			<radialGradient id="SVGID_00000160891609863174666260000005627462928287303089_" cx="342.0089" cy="293.5591" r="6.2974" gradientTransform="matrix(0.854 -0.5203 -0.5203 -0.854 363.7601 678.1688)" gradientUnits="userSpaceOnUse">
			<stop  offset="0" style="stop-color:#FFFFFF"/>
			<stop  offset="2.528321e-02" style="stop-color:#E9E9E9"/>
			<stop  offset="9.280195e-02" style="stop-color:#B4B4B4"/>
			<stop  offset="0.1589" style="stop-color:#888888"/>
			<stop  offset="0.2223" style="stop-color:#666666"/>
			<stop  offset="0.282" style="stop-color:#4D4D4D"/>
			<stop  offset="0.3367" style="stop-color:#3E3E3E"/>
			<stop  offset="0.3818" style="stop-color:#393939"/>
		</radialGradient>
		<polygon style="fill:url(#SVGID_00000160891609863174666260000005627462928287303089_);" points="502.3,249.1 500,248.7 
			502.2,249.5 497.7,252.8 502.7,250.3 502.3,252.6 503.1,250.4 506.4,254.9 503.8,249.9 506.2,250.2 504,249.5 508.5,246.3 
			503.4,248.8 503.8,246.4 503.1,248.6 499.8,244.1 		"/>
		
			<radialGradient id="SVGID_00000084515807730082850750000011267246869662075323_" cx="295.1181" cy="338.0601" r="7.4154" gradientTransform="matrix(0.854 -0.5203 -0.5203 -0.854 363.7601 678.1688)" gradientUnits="userSpaceOnUse">
			<stop  offset="0" style="stop-color:#FFFFFF"/>
			<stop  offset="2.528321e-02" style="stop-color:#E9E9E9"/>
			<stop  offset="9.280195e-02" style="stop-color:#B4B4B4"/>
			<stop  offset="0.1589" style="stop-color:#888888"/>
			<stop  offset="0.2223" style="stop-color:#666666"/>
			<stop  offset="0.282" style="stop-color:#4D4D4D"/>
			<stop  offset="0.3367" style="stop-color:#3E3E3E"/>
			<stop  offset="0.3818" style="stop-color:#393939"/>
		</radialGradient>
		<polygon style="fill:url(#SVGID_00000084515807730082850750000011267246869662075323_);" points="439.4,236.8 439,239.5 
			439.8,236.9 443.7,242.3 440.8,236.3 443.5,236.8 440.9,235.9 446.2,232.1 440.3,235 440.7,232.3 439.9,234.9 436,229.6 
			439,235.4 436.2,235 438.9,235.9 433.6,239.8 		"/>
	</g>
</g>
<radialGradient id="SVGID_00000129924769180997692510000007061827847002059154_" cx="210.0883" cy="333.4545" r="9.9687" gradientTransform="matrix(0.5869 0.8097 0.8097 -0.5869 103.1566 38.899)" gradientUnits="userSpaceOnUse">
	<stop  offset="0.1091" style="stop-color:#FFFFFF"/>
	<stop  offset="1" style="stop-color:#393939"/>
</radialGradient>
<polygon style="fill:url(#SVGID_00000129924769180997692510000007061827847002059154_);" points="495.2,12.8 491.5,12.5 495.1,13.4 
	488.4,19.2 496,14.6 495.7,18.3 496.6,14.7 502.3,21.4 497.7,13.8 501.5,14.1 497.8,13.2 504.5,7.5 497,12 497.3,8.3 496.4,12 
	490.6,5.2 "/>
<radialGradient id="SVGID_00000142167841880537931850000009871075184644077460_" cx="182.0188" cy="251.8595" r="8.6005" gradientTransform="matrix(0.5869 0.8097 0.8097 -0.5869 103.1566 38.899)" gradientUnits="userSpaceOnUse">
	<stop  offset="0.1091" style="stop-color:#FFFFFF"/>
	<stop  offset="1" style="stop-color:#393939"/>
</radialGradient>
<polygon style="fill:url(#SVGID_00000142167841880537931850000009871075184644077460_);" points="412.8,38 409.7,37.8 412.8,38.5 
	406.9,43.5 413.5,39.5 413.3,42.7 414,39.7 418.9,45.4 415,38.9 418.2,39.1 415.1,38.4 420.9,33.4 414.4,37.4 414.6,34.2 
	413.8,37.3 408.9,31.5 "/>
<radialGradient id="SVGID_00000065789460935892467510000012731624995541086354_" cx="245.6319" cy="286.8747" r="6.0439" gradientTransform="matrix(0.5869 0.8097 0.8097 -0.5869 103.1566 38.899)" gradientUnits="userSpaceOnUse">
	<stop  offset="0.1091" style="stop-color:#FFFFFF"/>
	<stop  offset="1" style="stop-color:#393939"/>
</radialGradient>
<polygon style="fill:url(#SVGID_00000065789460935892467510000012731624995541086354_);" points="478.8,69.1 476.6,68.9 478.8,69.5 
	474.7,73 479.3,70.2 479.1,72.4 479.7,70.3 483.1,74.3 480.3,69.7 482.6,69.9 480.4,69.4 484.5,65.9 479.9,68.6 480.1,66.4 
	479.5,68.6 476,64.5 "/>
<radialGradient id="SVGID_00000022546366937824638890000001151823431934653358_" cx="153.5748" cy="241.7299" r="6.4981" gradientTransform="matrix(0.5869 0.8097 0.8097 -0.5869 103.1566 38.899)" gradientUnits="userSpaceOnUse">
	<stop  offset="0.1091" style="stop-color:#FFFFFF"/>
	<stop  offset="1" style="stop-color:#393939"/>
</radialGradient>
<polygon style="fill:url(#SVGID_00000022546366937824638890000001151823431934653358_);" points="388.2,21 385.8,20.9 388.1,21.4 
	383.7,25.2 388.7,22.2 388.5,24.6 389.1,22.3 392.8,26.6 389.8,21.7 392.3,21.9 389.9,21.3 394.3,17.6 389.4,20.5 389.6,18.1 
	389,20.5 385.2,16.1 "/>
<radialGradient id="SVGID_00000055696247674619306090000013282399558064985735_" cx="203.5659" cy="299.0776" r="11.5587" gradientTransform="matrix(0.5869 0.8097 0.8097 -0.5869 103.1566 38.899)" gradientUnits="userSpaceOnUse">
	<stop  offset="0.1091" style="stop-color:#FFFFFF"/>
	<stop  offset="1" style="stop-color:#393939"/>
</radialGradient>
<polygon style="fill:url(#SVGID_00000055696247674619306090000013282399558064985735_);" points="463.3,27.6 459.1,27.3 463.2,28.3 
	455.4,35 464.2,29.7 463.9,33.9 464.9,29.8 471.6,37.6 466.2,28.8 470.6,29.1 466.4,28.1 474.1,21.4 465.4,26.7 465.7,22.4 
	464.7,26.7 458,18.8 "/>
<radialGradient id="SVGID_00000145020585102530355450000003073566492620171155_" cx="953.2281" cy="239.4391" r="12.6808" gradientTransform="matrix(-0.5316 -0.847 -0.847 0.5316 1126.4226 780.5135)" gradientUnits="userSpaceOnUse">
	<stop  offset="0" style="stop-color:#FFFFFF"/>
	<stop  offset="0.6727" style="stop-color:#393939"/>
</radialGradient>
<polygon style="fill:url(#SVGID_00000145020585102530355450000003073566492620171155_);" points="418.5,101.2 423.1,101.8 
	418.6,100.4 427.7,93.6 417.6,98.8 418.3,94.2 416.9,98.6 410.2,89.6 415.4,99.7 410.6,99 415.1,100.4 406.2,107.1 416.1,102 
	415.4,106.6 416.9,102.1 423.7,111.1 "/>
<radialGradient id="SVGID_00000073716823128319192070000012672576584112899479_" cx="961.0064" cy="282.3416" r="8.2344" gradientTransform="matrix(-0.3029 -0.953 -0.953 0.3029 1020.1055 929.8381)" gradientUnits="userSpaceOnUse">
	<stop  offset="0" style="stop-color:#FFFFFF"/>
	<stop  offset="0.6727" style="stop-color:#393939"/>
</radialGradient>
<polygon style="fill:url(#SVGID_00000073716823128319192070000012672576584112899479_);" points="460.8,100.3 463.6,101.5 461,99.9 
	467.8,97.1 460.6,98.7 461.8,95.9 460.2,98.4 457.5,91.7 459.1,98.9 456.2,97.7 458.8,99.3 452.1,102.1 459.2,100.4 458,103.3 
	459.7,100.6 462.4,107.4 "/>
<radialGradient id="SVGID_00000023973558951190804020000001336697218899304093_" cx="962.0475" cy="263.2305" r="4.9918" gradientTransform="matrix(-0.3029 -0.953 -0.953 0.3029 1020.1055 929.8381)" gradientUnits="userSpaceOnUse">
	<stop  offset="0" style="stop-color:#FFFFFF"/>
	<stop  offset="0.6727" style="stop-color:#393939"/>
</radialGradient>
<polygon style="fill:url(#SVGID_00000023973558951190804020000001336697218899304093_);" points="478.4,93.2 480.1,93.9 478.5,93 
	482.6,91.3 478.3,92.3 479,90.5 478,92.1 476.3,88 477.3,92.4 475.6,91.6 477.2,92.6 473.1,94.3 477.4,93.3 476.7,95 477.7,93.4 
	479.4,97.5 "/>
<radialGradient id="SVGID_00000073705512811608909990000005559618889235776153_" cx="255.8699" cy="217.5665" r="5.3677" gradientTransform="matrix(0.5869 0.8097 0.8097 -0.5869 103.1566 38.899)" gradientUnits="userSpaceOnUse">
	<stop  offset="0" style="stop-color:#FFFFFF"/>
	<stop  offset="0.6727" style="stop-color:#393939"/>
</radialGradient>
<polygon style="fill:url(#SVGID_00000073705512811608909990000005559618889235776153_);" points="426.8,118 428.8,118.4 
	425.1,121.5 429.2,119.1 429.1,121.1 429.5,119.1 432.6,122.7 430.2,118.7 432.2,118.8 430.2,118.3 433.8,115.2 429.8,117.7 
	429.9,115.7 429.4,117.7 426.3,114 428.8,118.1 "/>
<radialGradient id="SVGID_00000068641756088268588900000011005656560183931051_" cx="210.9452" cy="198.7951" r="5.6853" gradientTransform="matrix(0.5869 0.8097 0.8097 -0.5869 103.1566 38.899)" gradientUnits="userSpaceOnUse">
	<stop  offset="0" style="stop-color:#FFFFFF"/>
	<stop  offset="0.6727" style="stop-color:#393939"/>
</radialGradient>
<polygon style="fill:url(#SVGID_00000068641756088268588900000011005656560183931051_);" points="387.2,92.7 385.1,92.6 387.2,93.1 
	383.3,96.4 387.6,93.7 387.5,95.8 388,93.8 391.2,97.6 388.6,93.3 390.8,93.5 388.7,93 392.5,89.7 388.2,92.3 388.4,90.2 
	387.9,92.3 384.6,88.4 "/>
<radialGradient id="SVGID_00000093862051085266969790000015092888168157016504_" cx="208.9229" cy="186.8839" r="5.3675" gradientTransform="matrix(0.5869 0.8097 0.8097 -0.5869 103.1566 38.899)" gradientUnits="userSpaceOnUse">
	<stop  offset="0" style="stop-color:#FFFFFF"/>
	<stop  offset="2.528321e-02" style="stop-color:#E9E9E9"/>
	<stop  offset="9.280195e-02" style="stop-color:#B4B4B4"/>
	<stop  offset="0.1589" style="stop-color:#888888"/>
	<stop  offset="0.2223" style="stop-color:#666666"/>
	<stop  offset="0.282" style="stop-color:#4D4D4D"/>
	<stop  offset="0.3367" style="stop-color:#3E3E3E"/>
	<stop  offset="0.3818" style="stop-color:#393939"/>
</radialGradient>
<polygon style="fill:url(#SVGID_00000093862051085266969790000015092888168157016504_);" points="377.4,97.7 377.5,95.7 377,97.7 
	373.9,94 376.4,98.1 374.4,97.9 376.4,98.4 372.7,101.5 376.8,99.1 376.7,101 377.1,99.1 380.2,102.7 377.8,98.6 379.8,98.8 
	377.8,98.3 381.4,95.2 "/>
<radialGradient id="SVGID_00000008114596080267095060000007339710420074090656_" cx="110.9505" cy="196.6738" r="5.6856" gradientTransform="matrix(0.5869 0.8097 0.8097 -0.5869 103.1566 38.899)" gradientUnits="userSpaceOnUse">
	<stop  offset="0" style="stop-color:#FFFFFF"/>
	<stop  offset="2.528321e-02" style="stop-color:#E9E9E9"/>
	<stop  offset="9.280195e-02" style="stop-color:#B4B4B4"/>
	<stop  offset="0.1589" style="stop-color:#888888"/>
	<stop  offset="0.2223" style="stop-color:#666666"/>
	<stop  offset="0.282" style="stop-color:#4D4D4D"/>
	<stop  offset="0.3367" style="stop-color:#3E3E3E"/>
	<stop  offset="0.3818" style="stop-color:#393939"/>
</radialGradient>
<polygon style="fill:url(#SVGID_00000008114596080267095060000007339710420074090656_);" points="328,10.5 327.5,12.6 324.2,8.7 
	326.8,13 324.7,12.8 326.8,13.3 322.9,16.7 327.2,14 327.1,16.1 327.6,14.1 330.8,17.9 328.2,13.6 330.4,13.8 328.3,13.2 332.1,10 
	327.8,12.6 "/>
<radialGradient id="SVGID_00000018228597429769905190000010261928057940351673_" cx="261.3953" cy="65.5396" r="12.5776" gradientTransform="matrix(0.5869 0.8097 0.8097 -0.5869 103.1566 38.899)" gradientUnits="userSpaceOnUse">
	<stop  offset="0.1091" style="stop-color:#FFFFFF"/>
	<stop  offset="1" style="stop-color:#393939"/>
</radialGradient>
<polygon style="fill:url(#SVGID_00000018228597429769905190000010261928057940351673_);" points="308,211.4 303.4,211 307.9,212.2 
	299.4,219.5 309,213.7 308.7,218.3 309.8,213.8 317,222.3 311.2,212.7 315.9,213 311.4,211.9 319.8,204.7 310.3,210.4 310.7,205.8 
	309.5,210.4 302.2,201.9 "/>
<radialGradient id="SVGID_00000079456739823394564470000013942346481416908708_" cx="340.6484" cy="203.4462" r="12.5776" gradientTransform="matrix(0.5869 0.8097 0.8097 -0.5869 103.1566 38.899)" gradientUnits="userSpaceOnUse">
	<stop  offset="0.1091" style="stop-color:#FFFFFF"/>
	<stop  offset="1" style="stop-color:#393939"/>
</radialGradient>
<polygon style="fill:url(#SVGID_00000079456739823394564470000013942346481416908708_);" points="466.2,194.6 461.6,194.3 
	466.1,195.4 457.6,202.7 467.2,196.9 466.8,201.6 467.9,197.1 475.2,205.5 469.4,195.9 474.1,196.3 469.6,195.2 478,187.9 
	468.5,193.7 468.8,189 467.7,193.6 460.4,185.1 "/>
<radialGradient id="SVGID_00000030469603247294799580000001551110384857245119_" cx="211.12" cy="43.8607" r="12.5776" gradientTransform="matrix(0.5869 0.8097 0.8097 -0.5869 103.1566 38.899)" gradientUnits="userSpaceOnUse">
	<stop  offset="0.1091" style="stop-color:#FFFFFF"/>
	<stop  offset="1" style="stop-color:#393939"/>
</radialGradient>
<polygon style="fill:url(#SVGID_00000030469603247294799580000001551110384857245119_);" points="260.9,183.4 256.4,183.1 
	260.9,184.2 252.4,191.5 262,185.7 261.6,190.3 262.7,185.9 269.9,194.3 264.1,184.7 268.9,185.1 264.3,183.9 272.8,176.7 
	263.3,182.5 263.6,177.8 262.5,182.4 255.2,173.9 "/>
<radialGradient id="SVGID_00000027572306329477354980000006267514950627149241_" cx="172.8675" cy="182.6224" r="8.978" gradientTransform="matrix(0.5869 0.8097 0.8097 -0.5869 103.1566 38.899)" gradientUnits="userSpaceOnUse">
	<stop  offset="0.1091" style="stop-color:#FFFFFF"/>
	<stop  offset="1" style="stop-color:#393939"/>
</radialGradient>
<polygon style="fill:url(#SVGID_00000027572306329477354980000006267514950627149241_);" points="351.3,71.2 348,71 351.3,71.7 
	345.2,77 352,72.8 351.8,76.1 352.6,73 357.7,79 353.6,72.1 357,72.4 353.7,71.6 359.7,66.4 353,70.5 353.2,67.2 352.4,70.5 
	347.2,64.4 "/>
<radialGradient id="SVGID_00000013910452679098488290000009809584322355219091_" cx="135.4832" cy="207.0071" r="8.9623" gradientTransform="matrix(0.5869 0.8097 0.8097 -0.5869 103.1566 38.899)" gradientUnits="userSpaceOnUse">
	<stop  offset="0" style="stop-color:#FFFFFF"/>
	<stop  offset="0.6727" style="stop-color:#393939"/>
</radialGradient>
<polygon style="fill:url(#SVGID_00000013910452679098488290000009809584322355219091_);" points="349.1,26.6 345.8,26.4 349.1,27.2 
	343,32.4 349.9,28.2 349.6,31.6 350.4,28.4 355.5,34.4 351.4,27.5 354.8,27.8 351.5,27 357.5,21.9 350.8,25.9 351,22.6 350.2,25.9 
	345,19.9 "/>
<radialGradient id="SVGID_00000151541533895168366080000010644342853396777639_" cx="1074.1056" cy="153.1207" r="7.4151" gradientTransform="matrix(-0.5567 -0.8307 -0.8307 0.5567 1223.4336 781.0455)" gradientUnits="userSpaceOnUse">
	<stop  offset="0" style="stop-color:#FFFFFF"/>
	<stop  offset="0.6727" style="stop-color:#393939"/>
</radialGradient>
<polygon style="fill:url(#SVGID_00000151541533895168366080000010644342853396777639_);" points="499.2,-25.5 501.9,-25.2 
	499.2,-25.9 504.4,-30 498.6,-26.8 498.9,-29.6 498.2,-27 494.1,-32.1 497.3,-26.3 494.5,-26.6 497.2,-25.9 492.1,-21.8 497.8,-25 
	497.5,-22.2 498.2,-24.9 502.4,-19.8 "/>
<radialGradient id="SVGID_00000142150058839642111420000008560883950424439479_" cx="209.2256" cy="82.0112" r="10.3884" gradientTransform="matrix(0.5869 0.8097 0.8097 -0.5869 103.1566 38.899)" gradientUnits="userSpaceOnUse">
	<stop  offset="0" style="stop-color:#FFFFFF"/>
	<stop  offset="2.528321e-02" style="stop-color:#E9E9E9"/>
	<stop  offset="9.280195e-02" style="stop-color:#B4B4B4"/>
	<stop  offset="0.1589" style="stop-color:#888888"/>
	<stop  offset="0.2223" style="stop-color:#666666"/>
	<stop  offset="0.282" style="stop-color:#4D4D4D"/>
	<stop  offset="0.3367" style="stop-color:#3E3E3E"/>
	<stop  offset="0.3818" style="stop-color:#393939"/>
</radialGradient>
<polygon style="fill:url(#SVGID_00000142150058839642111420000008560883950424439479_);" points="291,159.6 287.2,159.3 291,160.2 
	283.9,166.3 291.9,161.5 291.6,165.3 292.5,161.6 298.4,168.6 293.6,160.7 297.6,161 293.8,160.1 300.8,154.1 292.9,158.8 
	293.2,155 292.3,158.8 286.2,151.8 "/>
<radialGradient id="SVGID_00000183950034326589038030000008240824786266269092_" cx="184.7813" cy="148.393" r="10.3886" gradientTransform="matrix(0.5869 0.8097 0.8097 -0.5869 103.1566 38.899)" gradientUnits="userSpaceOnUse">
	<stop  offset="0" style="stop-color:#FFFFFF"/>
	<stop  offset="2.528321e-02" style="stop-color:#E9E9E9"/>
	<stop  offset="9.280195e-02" style="stop-color:#B4B4B4"/>
	<stop  offset="0.1589" style="stop-color:#888888"/>
	<stop  offset="0.2223" style="stop-color:#666666"/>
	<stop  offset="0.282" style="stop-color:#4D4D4D"/>
	<stop  offset="0.3367" style="stop-color:#3E3E3E"/>
	<stop  offset="0.3818" style="stop-color:#393939"/>
</radialGradient>
<polygon style="fill:url(#SVGID_00000183950034326589038030000008240824786266269092_);" points="326.6,100.6 330.4,101.5 
	323.3,107.5 331.3,102.7 331,106.6 331.9,102.9 337.8,109.8 333.1,101.9 337,102.2 333.2,101.3 340.2,95.3 332.3,100.1 332.6,96.2 
	331.7,100 325.7,93 330.4,100.9 "/>
<radialGradient id="SVGID_00000001645357838579320110000007912500647283801779_" cx="106.2888" cy="152.4998" r="8.9622" gradientTransform="matrix(0.5869 0.8097 0.8097 -0.5869 103.1566 38.899)" gradientUnits="userSpaceOnUse">
	<stop  offset="0" style="stop-color:#FFFFFF"/>
	<stop  offset="2.528321e-02" style="stop-color:#E9E9E9"/>
	<stop  offset="9.280195e-02" style="stop-color:#B4B4B4"/>
	<stop  offset="0.1589" style="stop-color:#888888"/>
	<stop  offset="0.2223" style="stop-color:#666666"/>
	<stop  offset="0.282" style="stop-color:#4D4D4D"/>
	<stop  offset="0.3367" style="stop-color:#3E3E3E"/>
	<stop  offset="0.3818" style="stop-color:#393939"/>
</radialGradient>
<polygon style="fill:url(#SVGID_00000001645357838579320110000007912500647283801779_);" points="287.8,35 284.6,34.7 287.8,35.5 
	281.8,40.7 288.6,36.6 288.3,39.9 289.1,36.7 294.3,42.7 290.1,35.9 293.5,36.2 290.3,35.4 296.3,30.2 289.5,34.3 289.8,31 
	288.9,34.3 283.8,28.2 "/>
<radialGradient id="SVGID_00000049190460659445800090000005125305121108996024_" cx="186.0921" cy="124.2821" r="6.2974" gradientTransform="matrix(0.5869 0.8097 0.8097 -0.5869 103.1566 38.899)" gradientUnits="userSpaceOnUse">
	<stop  offset="0" style="stop-color:#FFFFFF"/>
	<stop  offset="2.528321e-02" style="stop-color:#E9E9E9"/>
	<stop  offset="9.280195e-02" style="stop-color:#B4B4B4"/>
	<stop  offset="0.1589" style="stop-color:#888888"/>
	<stop  offset="0.2223" style="stop-color:#666666"/>
	<stop  offset="0.282" style="stop-color:#4D4D4D"/>
	<stop  offset="0.3367" style="stop-color:#3E3E3E"/>
	<stop  offset="0.3818" style="stop-color:#393939"/>
</radialGradient>
<polygon style="fill:url(#SVGID_00000049190460659445800090000005125305121108996024_);" points="313.3,115.8 313.5,113.5 
	313,115.8 309.3,111.5 312.2,116.3 309.9,116.1 312.2,116.7 307.9,120.3 312.7,117.4 312.5,119.8 313.1,117.5 316.7,121.7 
	313.8,116.9 316.2,117.1 313.9,116.6 318.1,112.9 "/>
<radialGradient id="SVGID_00000129910834307186825860000008349872756994629007_" cx="139.2013" cy="168.7831" r="7.4154" gradientTransform="matrix(0.5869 0.8097 0.8097 -0.5869 103.1566 38.899)" gradientUnits="userSpaceOnUse">
	<stop  offset="0" style="stop-color:#FFFFFF"/>
	<stop  offset="2.528321e-02" style="stop-color:#E9E9E9"/>
	<stop  offset="9.280195e-02" style="stop-color:#B4B4B4"/>
	<stop  offset="0.1589" style="stop-color:#888888"/>
	<stop  offset="0.2223" style="stop-color:#666666"/>
	<stop  offset="0.282" style="stop-color:#4D4D4D"/>
	<stop  offset="0.3367" style="stop-color:#3E3E3E"/>
	<stop  offset="0.3818" style="stop-color:#393939"/>
</radialGradient>
<polygon style="fill:url(#SVGID_00000129910834307186825860000008349872756994629007_);" points="320.5,52.1 317.8,51.9 320.5,52.6 
	315.5,56.9 321.2,53.5 321,56.2 321.6,53.6 325.9,58.6 322.4,52.9 325.2,53.1 322.6,52.5 327.5,48.2 321.9,51.6 322.1,48.8 
	321.5,51.6 317.2,46.6 "/>
<g>
	
		<radialGradient id="SVGID_00000058553764681653680850000015332931793111971470_" cx="80.7326" cy="-251.137" r="124.3678" gradientTransform="matrix(0.7574 0.6529 -0.6529 0.7574 -74.8214 227.8813)" gradientUnits="userSpaceOnUse">
		<stop  offset="7.272730e-02" style="stop-color:#FFFFFF"/>
		<stop  offset="0.3686" style="stop-color:#FDFDFD"/>
		<stop  offset="0.5302" style="stop-color:#F5F5F5"/>
		<stop  offset="0.6594" style="stop-color:#E7E7E7"/>
		<stop  offset="0.7714" style="stop-color:#D4D4D4"/>
		<stop  offset="0.8713" style="stop-color:#BBBBBB"/>
		<stop  offset="0.9439" style="stop-color:#A3A3A3"/>
	</radialGradient>
	<path style="fill:url(#SVGID_00000058553764681653680850000015332931793111971470_);" d="M216.2,203.5
		c-29.7,34.4-81.7,38.3-116.1,8.6c-34.4-29.7-38.3-81.7-8.6-116.1c29.7-34.4,81.7-38.3,116.1-8.6C242,117,245.8,169,216.2,203.5z"/>
</g>
<g>
	
		<radialGradient id="SVGID_00000020399624583040876010000001097428298911969158_" cx="122.1241" cy="-208.4802" r="82.342" gradientTransform="matrix(0.7574 0.6529 -0.6529 0.7574 -74.8214 227.8813)" gradientUnits="userSpaceOnUse">
		<stop  offset="0.898" style="stop-color:#808080"/>
		<stop  offset="1" style="stop-color:#CDCDCC"/>
	</radialGradient>
	<path style="fill:url(#SVGID_00000020399624583040876010000001097428298911969158_);" d="M216.2,203.5
		c-29.7,34.4-81.7,38.3-116.1,8.6c-34.4-29.7-38.3-81.7-8.6-116.1c29.7-34.4,81.7-38.3,116.1-8.6C242,117,245.8,169,216.2,203.5z"/>
</g>
<g class="st68">
	<g>
		<path class="st69" d="M227.1,118.7c0-0.2-0.3-0.8-0.3-1c0.1,0,1.1,0,1.2,0.2c-0.1-0.2-0.5-0.1-0.6-0.3c-0.2-0.9-0.2-2.4-1-2
			c-0.1-1.3-0.5,0.3-2-2.4c-0.2,0.2-0.8-3.2-2.3-5.3c-0.6-1-1.3-1.1-2-1.5c-0.9,1.4-0.1,2.4,0.4,3.8c-1.4,0.7-1.9,1.5-1.1,3
			c0.3-0.1,0.5,0.3,0.7,0.2c-0.3,0.5-0.6,2.2-0.7,2.8c1.7-0.8,1.3,1.3,2.1,2.5c0.5,0.7,2.1,0.5,2.5,1.1c0.4,0.5-0.1,1.8,0.4,2.4
			c1,1.5,1.5,2,2.3,3.9c0.5,1.3,1.2,3.5,1.9,4.5c1.1-1,0.5-4.3-0.2-6.8c0,0,1-0.3,1.1-0.2c-0.1-0.1-1.2,0.2-1.2,0.1
			c-0.1-0.3-0.1-0.6-0.2-0.9c0-0.2,1.5-0.1,1.8,0c-0.2-0.4-1.6-1.1-1.8-1.7c0.1-0.1,0.4-0.1,0.4-0.2
			C229,120,227.9,119.2,227.1,118.7z"/>
	</g>
	<g>
		<path class="st69" d="M217.8,107.9c0,0-0.1,0.1-0.1,0.1c0.1,0.1,0,0.5,0,0.6c0.5,0.6-0.2,2,1.3,1.7c-0.3-1.5-1.6-3.3-2.3-4.7
			c0,0,0.8-0.4,0.8-0.4c0-0.1-0.5,0-0.6-0.1c-0.6-1.5-1.8-2.3-2.2-2.9c0.2-0.1,1.3-1.1,1.6-1.1c0.1,0.2,0.2,0.6,0.4,0.9
			c0.1-0.1,0.3,0.4,0.3,0.2c0.1-0.1,0.6-0.4,0.7-0.6c-0.3-0.5-2-0.3-2.4-0.7c0.2-0.1,1.7-0.8,1.8-0.8c-0.3-0.4-1.9-1-2.8-1.9
			c-0.1-0.1-0.2-0.2-0.3-0.3c-0.1-0.2-0.4-0.2-0.5-0.3c-1.3-1.3-2.4-1.6-2.5-1.6c0,0-0.2-0.8-0.2-0.8c-0.1,0-0.1-0.2-0.2-0.2
			c0,0,0.4-0.8,0.4-0.8c-0.2-0.1-0.5,0.3-0.8,0.2c0.8,1.3-0.4,2.3-2,0.8c0.3,0.8,0.4,0.7,0.6,1.2c0,0.1,0.9,0.5,0.9,0.6
			c0,0-0.2-0.7-0.2-0.7c-0.4-0.9-0.8-1.7-1.3-1.9c-0.3-0.3-1.3,0.9-1.6,1c-0.6-0.3-0.8-0.7-0.7-0.4c-0.1,0,0.5-0.8,0.5-0.8
			c-0.5-0.3-1.6,0.2-2,0c-0.9-0.5-4.5-2.3-5.3-2c0.7,1,1.9,1.9,2.9,2.7c1,0.7,2.2,1.2,3.3,1.7c1.3,0.6,5.1,1.4,3.6,3.6
			c0.8,0.8,0.8,2,2,1c0.8,1.2,1.6,3.4,3.1,3.1c0.3,1.4,1.3,1,2.3,1.7c0.2,0.4-0.2,1.4,0,1.5c0.3,0.3,0.2,0.9,0.6,1.1
			C217,108.7,217.7,107.8,217.8,107.9z"/>
	</g>
	<g>
		<path class="st69" d="M191.3,114.3c-0.3,2.1-0.8,2,1.1,3.8c1.6,1.5,2.5,0.8,4.4,1.1c1.5,0.2,2.6,2,4.3,0.9c1.7-1.1,0-2,0-3.1
			c0.2-0.1,0.8,0.7,1,0.6c0.3,0.2,1.4,0,1.6,0.2c0-0.4,0.1-1.1,0.2-1.5c0.4-0.5-0.1-2.3,0.2-2.7c0.6,0.4,0.9,1.4,1.3,2.1
			c1.2-1.2,0.9-1.7,0.4-2.8c0.1,0,0.7-0.1,0.7-0.2c-0.1-0.2-0.4-0.6-0.6-0.7c0-0.1,0.1,0.3,0.1,0.2c0-0.2-0.3-0.3-0.3-0.5
			c0.3-0.5,0.9-1.1,0.2-2.1c-0.3-0.4-1.5-0.2-2-0.4c-0.3-1.5,2.3-1.6,1.1-2.9c-2.5-3.8-4.5,0.3-4.8,1.2c-0.7-3-1.8-5.4-4.3-5.7
			c-0.7-0.5-1.7-0.2-2.9-0.2c-1.4,0-4.8-0.9-5.8,0.1c0.8,1.5,2.3,0.6,3.5,1c0,0-0.9,1.2-0.9,1.2c0,0,0.4-0.3,0.4-0.3
			c0.1,0.1,0.2,0.3,0.3,0.4c0.5,0.4,1.1,0.3,1.9,0.1c0.2,0.1,1,0,1.2,0.1c0.5,1.1,0.7,3.6,1.9,3.2c0.6,0.7,0.4,0.3,0.5,1.4
			c-0.6,0.2-2.3-1.4-2.4-1.4c0,0.1-0.7-0.1-1.1,1c-0.3-0.3,0,0.2-0.2,0.2c-0.1-0.2,0-0.6-0.1-0.8c-0.1-0.6-0.1-1.3-0.8-2
			c-0.2-0.5-0.7-1.4-0.7-1.4c-0.4,0.3-0.7,1.6-1,1.3c-0.1,0.1,0.3-0.4,0.3-0.3c-0.8-0.1-1.3-0.1-1.4,0.8c-0.1,1.3,3.6,1.9,3.2,3.4
			c-0.1,0.1-0.9-0.1-1,0.1c-0.6,0-1.1-1.6-2-0.7c0,0-1.7,3.3-1.7,3.5C187.6,114.1,190,115,191.3,114.3z"/>
	</g>
	<g>
		<path class="st69" d="M213.1,119.3c-0.1,0.1-0.2,0.2-0.3,0.2c0.4,0.8,1.3,1.1,1.8,1.8c0,0-0.5,0.3-0.5,0.3
			c0.1,0.2,0.1,1.2,0.3,2.2c0,0,0.9,0.1,0.9,0.1c-0.6,2.2-1.7,0.4-3.2,0c-0.4,1.4,1.2,1.6,1.6,2.6c0.3,0.8,0.5,1.9,0.8,2.8
			c-0.1,0.1-1.2,0.6-1.3,0.7c-1.6-2.1-1.2-2.9-1.8-2.3c-0.6,0.3-1.6-0.7-1.9-0.2c-0.9-0.9-2.1-0.7-2.8-0.1c-2.8-0.2-6.8,1.5-5.5,2.7
			c-0.6,0-1.3-0.4-1.4-0.5c0.1-0.2,0.3-0.4,0.3-0.5c0.1-0.3,1-0.8,0.3-1.3c0,0.1-0.4,1.5-0.4,1.6c-0.8-0.3-2.7-0.5-2.5,1
			c0.6,0.4,1.8,1.6,2.5,2.8c0.4,0.8,1.1,1.2,1.2,2c0,0.2,0.5,0.9,0.4,1c-0.2,0-0.8-0.4-0.7-0.2c0,0-0.7,0.1-0.8,0.1
			c0-0.5,0.3-0.9,0.1-1.4c-0.2-1,0-1.8-1.1-0.3c-0.8,1.1-0.3,3.3,0.9,4.1c0,0.1-0.7-0.3-0.7-0.1c-0.3,0.5-0.2,1.7,0,2.2
			c0,0.1,1.1-1.1,1.1-1c-0.4-0.2-1.3,0.8-1.6,0.6c-0.2-0.1-1.1-0.6-1.4-0.9c-1-2.1,0.5-6.3,0.1-8c-1.1,0.9-1.2,1.2-1.2,0.4
			c-0.1,0.1-3.4,3.5-3.8,4.1c0.2-0.3,0.9-0.7,0.8-1.3c0-0.2,0.2-0.6,0.1-1.1c0,0-1.7,0.3-1.7,0.3c-0.1-0.7-0.3-1.7-0.5-2.3
			c0.2,0.1,1.3-0.1,1.4-0.1c0.8-0.1,0.6-0.9,1.6-1c-0.2-0.5-0.2-0.8-0.4-1c-0.1-0.2-0.6-0.3-1.3-0.5c1.3-0.8,1.1,2,1.5-1.3
			c0-0.2,0.5-0.4,0.5-0.5c0-0.1,0.4-0.3,0.4-0.3c0,0-1,0.1-1,0.1c-0.1-0.8-0.9-0.8-1.7-1.7c-0.6,0.4-0.6,1.4-0.8,2.1
			c-0.7-0.3-1.6-1.2-2-1.5c-0.6-0.4-1-0.8-1.3-1.4c-1,0.3-2,1.5-1.7,2.5c-0.1,0,0.5-0.9,0.4-0.9c-0.6-0.3-0.8-0.3-1.3-1
			c-0.3-0.7-1.1-1.3-1.4-1.5c0,0,0.6-0.1,0.6,0c-0.3-0.7-1.5-0.9-1.8-1.9c-1.5,0.7-0.5,1.9-0.6,2c-1.5-1-3.3,0.9-3.5,0.8
			c0.1-0.1,0.8,1.8,1.2,2.2c-2.4-1.7-1.9,2.3-1.6,2.9c-0.9-0.2-1.6-1.1-1.2,0.3c-2.3-0.8-3,0.2-4.3,0.2c0.1-0.1-0.2-0.1-0.1-0.2
			c-0.1-1.4-0.5-3.2-1.8-1.1c-0.4-0.2-0.1-0.2-0.2-0.5c0.3-0.1-0.4-0.6-0.4-1.1c1.6-0.9-0.8-2.5-1.5-3.4c-0.3,0.4-0.9,1-1.1,1.5
			c-0.4-0.8,0.1-2.1-0.3-2.9c-1.3,0.3-0.5-2.1-1-2.9c-0.8-1.2-2.1-0.7-3.5-1.2c0.4-0.6,0.9-1.3,1.6-1.6c-0.5-1.6-1.1-0.6-2.1-0.7
			c-0.9-0.1-2-1.5-3-1.2c0.1,0.3,0.9,1.7,1.1,2c-0.1,0-0.2,0-0.3-0.1c-0.2,0.4-0.9,0.6-1.2,0.9c-0.6-0.7,0.3-2.1,0.8-2.8
			c-0.8-0.1-1.5,0.7-1.7,1.3c-0.8-0.9-1.4-2.1-1.4-2.6c-0.9,0.3,0.6,3-1.6,1.4c1.7-6-0.9-0.9-2,2.5c-0.5-0.6-1-1.5-1.5-2.2
			c-0.4,0.4-1.1,0.7-1.4,1.3c-0.2-0.3-1.3-1.1-1.4-1.4c-0.2,0.9,0.5,4.4-1.1,3.9c-1.7-0.5-0.2-2.6-0.3-3.7c-1,0.7-2.6,0.4-3.4,0.7
			c-0.2-1.1,0.2-2.8-0.9-2.5c0.7,1.7-0.6,2.9-1,4.6c0,0.1,0.3-0.4,0.3-0.3c-0.6,0.2-0.9,0.9-1.8,0.5c-0.1,0.5-1.1,1-1.3,2.3
			c-0.7,0.4-0.3,1.5-0.6,1.8c-0.7,0.8,0.4,1.9-1.5,1.8c-0.9,0-1.1-1.5-2.2-0.9c-2,1.1,3.9,3.2,4.3,4.3c-0.7,0.6-1.9,2.4-1.1,3.4
			c0,0,0.3-0.4,0.3-0.3c0.1,0.2,0.1-0.3,0.2-0.3c0,0,0,0.8,0.1,0.8c0.1,0.1,0.9-0.3,1-0.2c0,0.6-1.2,1.5-1.2,1.7
			c-0.7-1.2,0.2,0.6,0.2,0.6c0-0.7,0.6,0,1.5,0.3c-0.7,0.5-1.9,1.8-1.1,0.9c1.2,0.1,2.7,0.9,3.3,1.8c-0.1,0-1.7,0.6-1.7,0.6
			c0.4,1.4-1.1,1.4-0.7,2.7c0.4,1.2,2.5,0.6,3.4,0.3c0.6,2.3,1.1,4.3,3.5,4.1c-1.5,0.3-2.1,2.5-3.9,3.6c0.5,1.4,0.4,1.6,2.4,2.1
			c0.7-2.9,1.5-3.2,3-3.2c-0.1,0.1,0.2-0.1,0.2,0c0.5,0.7,0.3,0.1,1-0.3c0,0,1,1.4,1,1.4c-0.2,0.7-0.9,1-1.5,1.4
			c0.5,1.3,1.9,2.1,3,2.8c-0.4-1-0.3-2.2,0.7-2.3c-0.7-0.9-0.7-1.7-0.3-2.3c1.2-0.3,2.5,0.6,3.9,0.1c0.8,1.3-5.6,1,0.5,3.1
			c-0.6,0.6-0.4,0.9-0.6,1.5c-0.2,0-0.6-0.5-0.9-0.5c-0.5-1-1.1-1.1-1.8-0.2c0.5,0.6,0.2,1,0,1.7c-0.3-0.1-0.3-0.9-0.7-1
			c-0.6-0.3-1.2-0.4-1.9-0.7c-0.1-0.1-0.5,0.2-0.6,0c-0.1,0.1-0.3,0.9-0.4,0.9c-0.2-0.1-0.1-1-0.3-1c-0.1-0.7-0.9-0.9-1.6-0.6
			c0.4-0.4-0.6-0.6-0.7-0.3c-0.1,0,0.1,0.2,0,0.2c-0.2-0.7,0.4-1,0.2-1.7c-0.3,0.4-1.6-0.1-1.7,0.4c-0.2,0.3,0.7,0.9,0.5,1.1
			c-1.5-0.4-2.8-1-3.5-0.6c-0.2-0.2,0,0.7-0.1,0.4c-1.3,0.7-2.4-0.8-3.5,0c0.8,0,1,0,1.4,1c-0.2,0.1-0.1-0.4-0.2-0.2
			c0.7,0.2,0.4,1.2,0.9,1.5c-0.1,0.3-0.2,1.1-0.3,1.5c-0.7-0.2-1.8-0.3-2.3,0.2c0.4,0.5,0.7,1.3,1,1.4c0,0.1,0-0.5,0.1-0.5
			c-0.2,0.4,0.3,1,0.2,1.5c-0.3,0.1,1.3-0.2,1.5,0.3c-0.4,0.3-0.5,1.5,0.1,1.7c-0.2,0-0.3-0.9-0.7-1c0,0,0.5,0.1,0.5,0.1
			c0.1-0.2-0.2-0.7-0.4-0.5c0.1,0.1-0.1,0.4,0,0.5c-0.1,0-0.4-0.4-0.4-0.4c-0.5,0.5-0.2,1.6,0.5,2.1c-0.1,0.4,0.1-0.6-0.1-0.5
			c-0.1,0,0.1,0.2,0,0.2c-0.1,0-0.4,0.9-0.5,0.8c-0.1,0.1,0.1,0.4,0,0.5c-0.5,0-1.5,0.1-2.1,0.2c0-0.4-0.1-1.3,0.1-0.7
			c-0.2,0-0.5-0.2-0.7-0.2c-0.3-0.2-0.8,0.7-1.1,0.3c-0.6,0.3-0.9,0.5-1.5,0.8c-0.2-0.1-1.2-0.6-1.4-0.6c-0.2-1.4,1.4-3.3,1-4.7
			c-0.9,0.7-2.6,2.4-3.4,3.4c0,0-0.7-0.3-0.7-0.3c0.2-0.5,1.6-0.9,1.7-1.8c0.2-0.1-0.1-0.4-0.1-0.5c0.5-0.4,0.8-0.6,0.6-1.7
			c1.8,1.2,1.5-0.9,1.9-1.9c0.4-1,1.9-1.4,0.4-2.7c-0.2,0.4-0.8,0.7-0.9,1.2c-0.5-0.6-0.4-0.7-0.8-1.3c1-1.1-1.1-2.2-2.1-1.3
			c-1.6,1.4,0,1.4-2.7,1.7c-1.4,0.2-2.8,0.8-3.8-0.5c-1.2-1.6,0.7-1.8,1.5-3.2c-2.2-1.8-0.6-2,0.1-4c0.1-0.4-0.1-1.1,0-1.5
			c0.1-0.5,0.2-0.9,0.3-1.5c0.1-1.1-0.6-0.8-1.6-0.5c0,0-0.6-1.2-0.6-1.2c0.9-0.8,0.3-1.7-0.8-1.6c-0.4-0.5-0.5-2-0.5-2.7
			c-0.1-0.9,0.3-0.8-0.3-1.7c-1.1,1.3-1.1,2.4-0.7,4.1c0.1,0.9-0.1,2.7-0.1,2.7c-0.5-0.4-0.5-1.1-1-0.8c0.3-0.9-0.4-1.3-0.9-1.9
			c0-0.2,1.2-2,1-1.9c0.1,0.1-1.8-0.7-1.8-0.7c-1.1-1.3-1,0.2-1.2,0c0.3-0.2-1.1-1.9-0.8-3.1c0.3-0.4,0.7-1,0.9-1.5
			c0.1-0.1,0.8,0.2,0.9,0.1c-0.1,0,0-0.1-0.1-0.1c0.1-0.3-0.4,0.3-0.4,0.1c0.2,0.2,0.5-0.5,0.6-0.2c-0.2-1.1-0.5-0.9-1.2-0.6
			c0,0-0.7,0.1-0.7,0.1c0,0,0.7-0.2,0.6-0.1c-0.1,0.1,0.1,0.5,0,0.6c0.4-0.4-0.1-1.5-0.4-2.2c-0.5-1.1-0.5-0.3-1.3,0.2
			c0-0.2-0.2-0.9-0.2-1.2c-3.1,0.6-2.9-3.3-4.9-4.5c-0.1,0.7,1,3.8-0.2,3.8c0.1-0.1,0.1-0.5,0.2-0.6c-0.2-0.2-0.7-0.2-1.1-0.2
			c-0.5-1.2-1.1-4.2-2.7-2.7c0,0.2,1.1,0.3,1.2,0.5c0.3,0,0,1.5,0.3,1.4c-0.2,0.4,1.1,0.4,1.2,0.8c-0.1,0.1-1.6,0.6-1.6,0.7
			c0.1,0,1.1-0.4,1.1-0.4c0.1,0.5-0.4,1.2-0.2,1.7c0,0.7,0.9,2.2-0.9,1.8c-0.1,0.2-1.3-3.6-1.2-4c-0.4,0.4-0.8,0.3-1.2,0.8
			c0-0.6-0.5-2.7-0.7-3.2c-0.3,0.6-0.5,0.7-0.8-0.2c-1.2,0.3-3.6,4.4-3.5,3.2c-2,1.7,3.3,0.7,3.7,0.4c1,1.6-3.9,2.3-4.1,2.1
			c-0.1,0.2,0.2,0.4,0.1,0.6c-0.5,0.4-0.1-0.2-0.1,0.4c0.1-0.1-0.5,0.1-0.4,0.1c-0.1,0.6-0.4,1.8-0.6,2.4c-0.5-0.7-0.8-1.4-1.3-2.2
			c-0.1,1-0.2,0.8-1.2,1.2c-0.8-1-0.8-2.6-2.1-2c-1.5,0.6,0.2,2.1,0.4,3c0,0.2,0-0.3,0.1,0c-0.4-0.4-1.3,0.5-2.2,1.4
			c-0.3-0.2-0.7-0.9-0.8-1.2c0.1-0.1-0.7,0.1-0.6,0c-0.4-0.8-1.1-1.9-1.7-0.8c-0.4,0.6,0.4,2,0.8,2.1c-0.2,0.4-0.1,1-0.2,1.6
			c-0.8,1-0.1,2.7,0.9,4.2c0.7,1.8,1.9,3.4,2.2,4.1c-0.1,0.1-0.3,0.7-0.4,0.7c-1.5-1-1.7-5.3-3.7-5.3c0.5,0.8,1.4,2.6,1.2,3.6
			c-0.2,1.5-0.6,0.7-1.1-0.5c-2.8,1.5,0.7,2.2,0.9,3.1c0,0.2,0.7-0.3,0.5-0.1c-1-0.3-2.5-0.3-3.5,0.6c0.5,0.9,1.3,1.7,2.1,2
			c0,0.7,1.7,1.5,1.6,2.2c-0.4-0.2-0.8-1.1-1.2-1.5c-0.1,0-0.2-0.4-0.4-0.4c-0.1-0.1-0.7,1-0.8,0.9c0,0-0.1-0.2-0.1-0.1
			c-0.7-0.2-1.2-0.6-1.8-0.1c-1,0.9,0.7,2.5,1.7,1.8c0.1,0.1,0-0.4,0-0.5c0.1,0.3-0.7,0.9-0.7,1.4c0.2-0.1,1.6-1.2,1.9-1.3
			c0.4,0.4,0.9,1.7,1,2.3c0,0-0.3-0.1-0.4,0c-0.1-0.4-0.7-0.1-1.3-0.3c-0.2,0.2-0.3-1-0.5-0.9c-0.2-0.2-0.9-0.3-1.1-0.6
			c-0.4,0.5-0.7,0.9-1.4,1.1c-0.2-0.1,0.2-0.1,0.1-0.1c-0.1-0.1-0.1,0.6-0.1,0.5c0.4-2-0.7-4.1-1.4-6.1c0.2-1-0.5-1.4-1.7-2.9
			c0.8-0.5,2.4-1.4,2.3-2.4c-1.8,0-2.2-2-2.2-3.5c0,0-0.4,0.1-0.4,0.1c1.1,0.1,0.7-1.8,1.3-2.4c0.2-0.1,0.7-0.5,0.9-0.6
			c1.1-0.1,1.5,2.5,2.4,0.9c0.1,0.3,1.3,1.1,1.4,1.4c1.4-2.3-1.8-3.4-2.6-5c-0.8-1.6-2-1.5-1-2.7c0.5-0.6,3-1.1,2-2.4
			c-1.2,0.2-2.1,1.5-3,2.1c-0.2-0.1,0.4-0.3,0.4-0.4c0,0-0.4,1-0.4,0.9c3.4-1.5-0.8-5.6-3-2.2c-0.4,0.6-0.7,3.6-1.7,3.4
			c-1.5-0.3,0.5-3.4,0.8-4.1c-0.3,0.3-1.3,0.5-1.6,0.8c0-0.1,0.4-0.9,0.5-1.3c-0.3,0.2-0.5,0-0.8,0.2c-0.8-1.2,0.6-1.6,0.9-2.8
			c0.2-1.1-1.5-3.1-1.3-4.2c-0.5,1.4-0.9,2.7-1.1,4.2c-0.2,1.2,1,2,0.5,3.2c-0.9,2.2-2.6,4-2.2,6.4c-0.2-0.1,0.1-0.2-0.1-0.3
			c-0.6,0.5-0.3,1.1-0.5,1.8c-0.8,2.2-0.9,5.2-1.1,8c-0.2,0.5-0.8,1.1-0.9,1.6c-0.4,1.4,0.7,2,0.7,3.1c0,0.5-1.2,0.9-1.2,1.3
			c0,0.3,0.8,0.8,0.7,1.2c0,0-1.4-0.4-1.4-0.4c0,0.1,0.4,0.3,0.3,0.3c0,0.1-0.4,0.2-0.4,0.4c-0.3,1.1-0.2,5.8,1.6,5.4
			c0,0.9,1.4,1.6,0.9,2.5c-0.1-0.1-1.7-0.1-1.8-0.2c0,0-0.4-0.4-0.4-0.4c0-0.2,1.2-1.4,1.2-1.5c0.4,0.3,0.5,1.3-0.5,0.2
			c-0.2,0.1-0.8-0.6-0.8-0.5c0-0.1,1.4,0.8,1.3,0.8c-0.1,0.4-0.5,0.7-0.4,1.1c-0.2,0.1-1.1,0.1-1.2,0.2c0.2,0.6,1.1,1.3,1.4,2
			c0.4,1.3,0.9,2.1,1.4,2.3c0,0,0.4,0.7,0.7,0.5c0,0-1-1.2-1-1.2c0,0,1.2,0.8,1.2,0.8c0.9-2.9,1.7-4.7,2.6-2.5
			c0.3,0.1-0.3,1.1-0.2,2.2c0,0.7,0.2,1.6,0.4,2c0,0.2,0.3,0.1,0.4,0.3c0-0.1,0.5,0.4,0.6,0.3c0,0-1.3-0.4-1.3-0.4
			c0,0.8,1.1,0.8,1.4,0.1c0.4,0.3,2,2.7,1.8,3.9c-0.3,0.2-1.4-0.6-2-0.9c-0.9-0.4-2.1-1.5-2.9-2.2c0.1,0.5,0.6,0.4,0.6,0.9
			c-1.1-2.2-3-1.4-4-4c0,0.5,0.7,1.1,0.8,1.8c-0.1,0-1.4,0-1.5,0c0.1,0.1,1.6,0.1,1.6,0.2c0.1,2.4-0.3,5.7,0.3,7
			c0,0,0.5-0.7,0.6-0.7c0.1,0.1,1.6,2.7,0.9,3c-0.7-1,0.2-1.1-0.3-1.6c-0.3,0.2-0.7,0.8-0.7,1.2c0,0,1.2,0.2,1.2,0.2
			c-0.4,2.4,1.2,6.1,2.1,8.4c0.2,0.4-0.9,2.9-0.5,3.1c0,0,0.7-0.7,0.7-0.7c0.4,0.9,0.7,1.4,0.8,1.7c0.4-0.4,0.4,0.4,0.5,1.7
			c-0.2-0.1,0.5-0.1,0.3-0.2c-0.1-0.1,0.2-0.7,0-1c0.1,0.2-0.8,0.9-0.7,1.1c-0.1,0-0.1-0.6-0.2-0.7c-0.6,1,0.5,2.7,1.4,3.2
			c0.1,0.3,0.1,0.2,0.2,0.4c0.3,0.9,1.6,1.6,2.1,2.5c0.4,0.8,1.2,3.4,1.3,0.9c0.1,0.1,0.8-0.1,1,0.1c0.1,0.2,0,0.5,0.1,0.7
			c0-0.1-0.2,0.2-0.2,0.1c0.3,0.2,0.5,0.3,0.7,0.6c0.6,1.3,1,2.6,0.9,1.6c0.1,0.2,0.3,0.5,0.3,0.6c0.3,0.6,2.2,0.8,3.4,1.6
			c0.1,0.2-0.2,0.9-0.1,1.1c0.2,0.1,0.5,0,0.7,0.1c0.8,0.5,0.8,1.3,1.1,2c0,0.3,0.3,0.4-0.1,0.8c0.5,0.7,1.9,0.4,2.5,1
			c0,0.2-0.2,0.8-0.1,0.9c0.2,0.4-0.5,1.1-0.3,1.5c0.7,1.3,2.4,1.8,3.7,2.8c-0.1-0.2-0.7-0.3-0.8-0.5c0.5-0.2,0.9,0.5,0.5-0.7
			c0-0.2,0.2-1.1,0.3-1.2c1.1,0.8,2,2.5,2.4,3.7c0,0-0.7-0.2-0.7-0.2c-0.1,0-0.7,0.4-0.7,0.4c0,0,1.6-0.1,1.7-0.1
			c0,0.1-0.6,0.2-0.4,0.3c0.1,0.1-0.4,0.9-0.3,1.2c0.1-0.1,0.2-0.3,0.2-0.4c1.5,0.9,5.4,2.6,8.5,4c0,0-0.5,0-0.5,0
			c0.6,0.8,1.1,2.4,2.6,0.8c-0.1-0.2,0,0.8-0.1,0.6c0.6,0.3,2.2-0.6,2.5-0.3c-0.5-0.8-3.2-1.3-3.5-2.4c0.2-0.2,1-0.1,1.2-0.2
			c0.1,0,0.1,0.2,0.2,0.2c0.8,0.4,1.1,1.4,2.1,1.4c0-0.1,0.4,0,0.4-0.2c0.1,0.2,0.8,0.6,0.8,0.6c-0.1-0.1-0.7,0.3-0.8,0.1
			c0.1-0.3,0.2-1.2,0.2-1.4c0.5,0.5,1.3,1.4,1.8,1.8c0,0.1-0.7,0.8-0.8,0.9c-0.4,0-0.3-0.3-0.8-0.2c0.9,1,0.9,1.9,1.2,2.2
			c0.1,0,0.7,0.9,0.8,0.9c0-0.1-0.2-1.3-0.2-1.3c0.5,0.3,1,0.4,1.6,0.6c0.5,0.2,2.6,0.9,3.4,1.1c-0.8-1.2-3-1.6-3.7-2.9
			c0-0.1,0-0.3,0-0.5c0.6,0.1,0-0.7,0.4-0.7c-0.4-0.6,0-0.9-0.5-1.4c0.9,0,1.6,0.8,2.4,0.9c0.3-0.8,0-1.9,0.4-2.3
			c-0.2,2.6,6.5-1,3.2,2.6c0.9,0.1,7.1-0.8,4.7,1.8c-1,1-3.3-0.1-2.5,2.3c0.3,0.8,1.4,1.3,2.1,1.7c0.7,0.8,2.4,0.8,3.3,1.6
			c1.4,1.5,2.4,2.6,4.7,3.3c1.2,0.4,2.5,2.1,3.6,2.3c1.1,0.3,2-0.7,3.1-0.6c-0.4-0.2-1-0.5-1.3-0.9c0.2-0.2,0.9,0.4,1.1,0.4
			c0.2,0,0.3,0,0.4-0.1c1,0,2.7,0,3.6-0.3c-0.3-0.7-2.1-1.6-2.8-1.8c0.8-0.8,0.6-1.8-0.5-2.1c0.6-1.4,1.8-0.6,2.7-1.1
			c0.6-0.3,0.6-1.4,1.1-1.8c-0.6,0.1-0.3-0.3-0.9-0.5c-0.1,0,0-1.4-0.4-1.5c-0.5-0.2-1.5,1.8-2,1.7c-3-0.7-1.4-2.3,0.2-3.4
			c-0.7-1.4-4.3,2.7-6.3,1.8c-3.6-1.7,0.2-3.2,1.1-4.6c0.5-0.4,1.1-0.3,1.3-0.5c0.2,0,0.6-0.4,0.8-0.3c-0.2-0.6-0.9-0.1-1.4-0.4
			c-0.1,0-0.1-0.7-0.2-0.6c0.1-0.1,1.2-0.2,1.3-0.3c-0.2-0.3-1.3-0.1-1.7-0.2c0,0,0.1-0.3,0.1-0.3c-0.2,0-0.3-0.8-0.4-0.8
			c-0.2,0,0,0.1-0.2,0.1c-0.1-0.2-0.1,0.1-0.2-0.1c-0.1-0.3-0.6-0.9-0.6-1.2c0.8,0.5,1,1.4,1.9,1.4c0.2-0.9-0.1-1.4-0.8-1.8
			c0-0.2-0.3-0.9-0.2-1.1c1.6-0.2,2.5,0.3,4.1,1.6c1.2,1,2.8,2.9,0.9,3.6c0.2,1.9,0.6-0.3,1.5-0.6c1.5-0.6,2.3-0.3,3.9,0.2
			c0.9,0.3,2.1,0.1,1.1,1.6c-0.2,0.3-0.5,1.6-1,1.6c-0.9-0.4-1.1-1.3-1.5-1c0,0-0.5-1.4-0.4-1.3c-0.1,0,0.3,0.8,0.3,0.8
			c0.5,1.4,1.4,1.4,2.6,1.5c0.3,0.1,0.4,0.8,0.7,0.9c0.3,0.1,0.9-0.7,1.1-0.6c0.3,0.3,0.1,1.2,0.5,1.3c-0.1,0-0.2-0.2-0.3-0.2
			c0.1,0.3,0.3,0.7,0.7,0.7c0.6,0.5,1.1,0.3,1.8-0.1c0.4,0,0-0.2,0-0.6c0,0,0.1,0.5,0.1,0.5c0.2,0.4,1.3-0.3,1.4,0.1
			c0.7-1,1.8-1.1,2.5-1.7c0.9-0.4,1.4-1.5,2.2-2c0.3-0.1,0.9,0.6,1.1,0.5c2.1-0.5,5.3-1.3,6.2-3.6c-0.7,0.7-0.2,0.4-0.7-0.2
			c0.3-0.2-0.2-0.3-0.1-0.4c-0.7-0.9-0.2-0.9-0.4-1.3c0.1-0.8,0.2-2.2,0.4-2.7c-0.7,0-1.7,1.7-2,2.5c-1.7-0.9,0.3-4,0.2-5.6
			c-0.1-1.7-1.7-2.9-2.9-4.2c-1.9,1-1.9,3.1-4.3,1.2c-0.2,0.8-0.7,0.2-1.4,0.3c-0.6,0-1.7,0.3-2.1,0.3c0.4-0.3,3.4-2.6,3.4-2.8
			c-0.1-1.1-1.6-0.9-2.1-0.3c0,0-0.1-0.1-0.1-0.1c-0.2,0.2-1,0-0.9,0c-0.1,0.1,0.6,0,0.5,0.2c-0.6-0.6-0.8-1.6-1.3-2
			c-0.2-0.1-1,0.3-1.2,0.3c-1.2-1.5-1.9-3.4-3.5-3.7c0-0.1-0.8,0.9-0.8,0.8c-0.5-1-0.6-1.2-1.2-0.4c0,0-0.5,0.6-0.5,0.6
			c-1-0.8-1.3-2-2.3-1.1c0.6,1.2,0.5,1.2,0.7,2.1c0,0.1,1.3,0.2,1.3,0.3c0,0.1-0.4,0.2-0.4,0.3c-0.1,1.4-1.5,0.8-0.3,1.9
			c0.6,0.6,0.1,1.5,0.6,1.7c0.3,0.4,0.5,0.7,0.8,1.3c0,0.3,0.2,0.7,0.5,1c0.1,0.1,1.1-0.4,1.3-0.4c1.6,2.3,3.1,4.4,1,2.7
			c0.1-0.7-1.4-0.5-2.3-0.9c0-0.3,0.1-0.6-0.6-0.3c0,0-0.2,0.1-0.2,0.1c-0.7-0.2-1.6,0.1-2.2,0c0-0.1,0.1-0.2,0-0.1
			c-1.2-0.2-3.1-1-3.1-1.1c0-3.3-7.4,0.8-8.5-3.5c1.1-0.7,3.7-0.1,2.6-1.7c-0.1,0-0.3-0.8-0.4-0.8c1.2-1.6-1.5-2.5-3.3-3.3
			c0.3-2.4-1.3-1.4-2.8-1.7c0.7,0.7,1.2,1,2.1,1.4c0.1,0.1,0.4,0,0.6,0.2c-0.3,0.3-0.7,0.7-0.9,1c-0.6-0.9-2.1-1.1-2.8-0.6
			c0.3,0.7,1.8,1.3,2.2,1.8c0,0.1-0.2,0.5-0.2,0.5c-0.6,0-1.9-0.9-2.2-0.8c-1,0.5,0.7,1.8,1.5,1.8c-1.1,1.5-2.7-0.7-4.1-0.9
			c-0.8-0.1-1.6,1.8-2.4,1.7c-0.7-0.1-1.5-1.3-2.2-1.4c-0.8-0.2-2.2-0.5-3.2-0.7c-0.2-0.1-0.2-0.3-0.4-0.5c-0.5-0.5-0.6-0.2-0.5-0.6
			c0.2,0.1,0.3-0.3,0.4-0.3c-0.2-0.1-0.2-0.1-0.3-0.2c0.3-0.3,1,0.1,1.6,0.2c-0.1-0.3-0.8-0.4-1.1-0.7c-0.3,0.1-1.3,0-1.6,0.2
			c-0.4-1.1,1-2.2,1.8-2.8c-0.8-1.5-2-0.6-2.9,0.1c0,0,0.4,1.1,0.4,1.1c-0.1,0-0.5-0.8-0.6-0.7c-0.4,0.2,0.2,0.6-0.2,1.3
			c-0.2,0.3-0.5,0.5-0.5,0.8c-0.2,0.1,0.6,0,0.7,0.6c0,0-1.4,0-1.4,0c-0.3,0.6-1.7,2.5-2.4,2.3c-2.1-0.5,0.3-1.9,0.4-2.7
			c-2.2,0-1.9,1-3.2,1c-0.5-0.3-1.6,0.6-2.1,0.3c-0.1-0.7,2-2.3,1.6-3.2c-0.9,0-2,1.1-2.7,1.6c-0.5-0.3-1.4-0.7-1.5-0.9
			c2-1.9,1.5-0.4,0.5-0.4c0.1-0.3,0-0.2-0.1-0.4c-0.3,0.1-0.3,0-0.6,0.1c-0.1-0.1-0.3-0.1-0.3-0.3c1.5,0.7,1.6-0.8,2.8-1.1
			c-0.4-0.2-3.1-3.2-3.3-4.1c1.5,0.4,3.3,0.8,3.5,0.6c0.2,0.2,0-3.6-0.3-4.2c2.9,2.3,2.4,2.6,5,6c-0.3,3.5,10.5-0.7,9.5-2.4
			c-1.2-1.1-3,1.5-3.3,2.1c0-0.2-1.6-0.9-1.9-0.8c0.4-0.4,1.5-1,0.5-0.7c-0.4-1.1,3-0.8-0.3-1.7c-1.7,1-0.4,0.9-2.2,1.3
			c-0.3-0.7,1.6-3.2,1.6-3.2c-0.2-0.1-5.7-2.8-2.3-2.7c-0.2-0.7-4.5-2-4.8-2.2c4,2,1.2-3.6,0.4-4.2c0.2,0.1,0.1,0.7,0.3,0.8
			c0,0,0.2-0.2,0.2-0.2c0,0,0.4-1.1,0.4-1.1c2.2,0.7,2.2,1,3.3,1.8c1.5-1.5,0.5-3.5,1.3-4.3c0.5,0.6,0.7,0.7,0.3,0.9
			c0,0-0.7-1-0.7-1c0.2-0.2,1.7,0.3,2.4,0.3c-0.5-0.8-0.6-1.1,0.1-0.6c-1.2-3.2-2.1,3.8-2.7-2.4c0.6,2.1-0.1,0.3-0.2-0.3
			c1.1,1.3,3,3,3.1,1.1c0.4-0.1,2,0.3,2.5,0.9c4.8-0.2,1-0.5-0.7-3.3c0.5-0.4,0.8-0.5-0.2-0.3c-0.2,0.3-1.4,0.4-1.5,0.6
			c-0.5-1.1,0.2-3.2,1.1-4.8c0.8,1.6,4.5,7.7,5.7,7.8c0.6,1.9,0.3,2.1,0.6,2.9c1.7,0.6,0.8-5.4-1-5.2c-0.1,0.3,1,1.7,1.1,1.9
			c-0.1,0.1-1.9,0.6-2.2,0.9c-0.8-1.2-0.6-4-0.4-5.3c1.9,0.8-0.2,2.7,2,2.3c0.3,0.7-1.5-3.9-2.4-5.6c1.4,1.2,2.6,3.4,2.4,4
			c0.2-0.3,0.4-1.1,0.7-1.6c0.7-0.1,1.1,5.5,2.1,4.3c0.2,0.4,0.7-2.8,1.1-4.7c0,0-1.3-0.5-1.3-0.5c0.1-0.2,1,0.1,0.9-0.1
			c0.2-0.6-0.3-1.1,0-1.3c2.4,4.1-0.2,0.4,0.8,3c1.1-0.9,0.7,0.4,1.2,0.9c0.8-2.4,2.5,0.3,2.9-0.6c-0.4-1.2-2.4-3.5-0.9-5.1
			c0.2-0.1-0.1-0.6-0.2-0.7c0.2-0.1-0.1,0.2,0.1,0.1c0.1,0.6,0.6,5.5,2.2,5.2c-0.6,0.6-0.6,1.1-1.1,1.2c0.4,0.1,0.1-0.8,0.4-1
			c0,0.1,0.8,1.2,0.8,1.3c-0.1,0.1-1-0.2-1.2-0.1c0.2,0.1,0.9,0.2,0.9,0.3c0,0.2,0.3,0.9,0.3,1.1c-0.4,0.3-2.9,0.1-3.4,0.2
			c0.6,0.5,2,1.8,3,1.4c0.8-0.3,1-1.6,1.8-2.1c0.1,0-0.1-1,0-0.9c0.2-0.2,0.7,1,1,1c0.1,0.1-0.2-0.1-0.1,0c0,0.1,1-0.2,1-0.1
			c0.2,0.7-0.9,1.5-1.4,2c0.3,0,1.4-0.3,1.8-0.3c0,0.1-1.1,0.8-1.1,0.9c-0.2,0.3,0.7,1.6,0.7,1.9c-2.2,0.3-0.3,1.9,1.7,3
			c0.1,0.1-0.4-0.5-0.4-0.5c-3.1,2.4,2.7,5.7,2.2,6.3c-0.8-0.2-1.4,0.3-2,0.8c-0.4-0.2,1.4,0.3,2.2,0.9c-0.5,0.3-2.1,1.7-2.5,1.9
			c-0.5-0.5-0.6-1.4-0.6-1.3c-1.6,0.4-1.2-0.3,0.2,0.6c-0.3-0.2-0.8,0.2-1.2,0.2c-0.3-0.4-1.1,0-1.2-0.4c0.1-0.2,0.6-0.4,0.3-0.3
			c0,0-0.7-0.9-0.6-1c1.3-1,3.6-3.4,2.6-2.7c-0.2-0.3-1.2-0.1-1.7,0c-1.3-1.2-2.3-2.9-4.2-2.3c0.5,0.5,0.8,0.9,1.1,1.6
			c-1.4,0.2-1.9,0.9-3.3,0.5c-0.7,1.3-0.1,3.1,1.2,3.4c0.7,0.5,2.1-1.5,2.1,0c-0.2,0.1,0.3,1.1,0.2,1.2c-0.2-0.1-0.3-1-0.2-0.9
			c0,0-0.4,0.1-0.9,0.4c0.4,0.4-0.1,1.4,0.4,1.9c-0.2,0,0.5-0.8,0.3-0.8c-1,0.2-1.5,0-2.3,0.7c1,1.7,2.9,0.3,3.9,2.1
			c0.6-0.7,0.9,0.1,1.5,0.3c0.2,0.2,0.7-1,0.8-1c0.1,0.1-0.4,1.6-0.3,1.7c0.2,0.2,0.9,0.3,1.2,0.3c0,0,0.7-0.9,0.8-0.9
			c0.6,0.8,1.1,2.1,2,2.2c-0.1-0.5-0.8-0.9-1-1.4c0,0,1-0.7,1-0.7c0.7,0.3,1.1,0.5,1.8,0.2c0-0.1,0.3-0.4,0.3-0.5
			c0.3,0.1,0.4,0.5,0.7,0.6c-0.1-0.8-1.1-1.7-1.6-2.2c1-1,2.9-0.7,3.7,0.5c0.3-0.4,0.1-0.8,0.1-1.3c-0.4-0.1,0.1-0.4-0.2-0.6
			c2.1-0.9,2.2-2.4,1.8-4.2c0.4,0.3,5.7,2.3,3.1-0.3c-0.2,0.2,0.4,0.6,0.2,0.8c-0.1-0.1,0-1,0.1-1.2c0.1-0.1,0-0.3-0.1-0.4
			c0.4-1.6,1.7-4.3-1-3.2c-0.3,0.1-0.4,1-0.5,1.2c-0.7,0-2.1,0.5-3,0.4c0.4-0.1,0.7-0.9-0.3-0.4c-0.1-0.1-0.2,0-0.4-0.1
			c-0.5-1.1,0.5-1.4,1-1.4c-0.3-0.4-1.2-1.1-1.7-1.6c-0.1-0.3-0.3-0.9-0.4-1.1c0.6-0.1,1-0.3,1.7-0.1c0.1-0.6-0.7-0.5-0.6-1
			c-0.6-1-2,0.4-3.2,1.1c0,0,0.4-1.2,0.4-1.2c0-0.1-0.2-0.7-0.2-0.8c0.1-0.1-0.6,0.5-0.5,0.5c0.2,0.1,0.7-0.9,0.9-0.7
			c0-0.2-0.1,0.5-0.1,0.4c0.8,0.1,0.9-0.4,1.4-1.4c-0.1-0.2,0.7-0.1,0.5-0.4c0.4-0.1,0.1-0.9,0.6-0.9c2.3-0.3,1.3-0.3,0.7-2.5
			c1-0.3,2.5,1.5,3.4,2.1c0.2-0.9-1.5-3-2.1-4.1c0.1,0,0.3,0,0.4,0c0.6,0.1,1.3-0.3,1.8-0.5c2.1,0.3,5.1,1.9,5.4,2
			c-0.1-0.3,2.3-2.5,2.4-2.3c-1.8,1.2,3.7-0.4,3-1.3c-0.4-0.1-1.2-0.2-1,0.3c-0.2,0,0.4-2.5,0.9-2.8c-0.1,0.3,0.4,0.6,0.4,1
			c1.4-0.3,1.2-1.2,0.9-1.9c0.3,0.5,0.5,0.8,1.7,0c-1.4-2.5,0.5-5.2-0.8-7.8c-0.5,0.3-1.5-0.2-1.6-0.8c2.3-0.4,1.2-1.7-0.6-2.4
			c-0.1-0.1-0.2,0.2-0.3,0.2c-0.9-0.3-2.3-1-2.9-0.3c0,0,0-0.3-0.1-0.2c-0.2,0.1-0.8,0.6-1.2,1.1c0,0,1.6,1.1,1.6,1.1
			c0.3-0.5-0.6-1.2-0.6-1.2c0,0-0.5-1.4-1-1.6c1.4,0,4.8,0.4,7.5-0.7c0.2,0-0.1-0.6,0.1-0.6c0.3,0.5,0.5,1.7,0.9,2
			c1.5,1,1.3-0.8,1.5-1.1c0.3-0.5-0.3-1.7,0.2-2.1c0.1,0,0.2,0.1,0.5-0.3c0,0,0-0.2,0-0.2c0.5-0.4,1.5-0.2,2-0.5
			c0.4-0.2,0.8-0.3,0.8-0.3c-0.5,0.5,0.2,0.5,1.2,0.5c-1,0.4,0.1,2-0.1,3.2c-0.1-0.1-1.1-0.4-1.1-0.5c-0.1-1-1.6-1.2-2.6,0.1
			c0.5,0.5,1.1,2,2.1,2.6c-0.1,1.6-1.8,0.4-1.8,0.4c0.5,0.5-1.1,3-1.1,3.1c0.6-0.1,3.8,0.8,4.1,1.2c-0.9,1.2,3.9,4.9,4.1,4.4
			c-0.8,0.8-0.2,0.5-1.5,1.2c0.8,1.5,1.1,0,0.9,1.5c-0.2,0.1,1,0.5,1,0.8c0,0.7,0.5,2.2,0.9,2.9c0.4-0.8,0.5-2.5,1-3.2
			c1.1,1.2,1.2,1.7,2.5,1.8c0.7,0.7,1.6,1.4,1.5,1.2c0.5-0.1,0.9-1,1.3-1.1c0.4,0.7,0.2,1.2,1.5,1c0.9-0.1,1.7-1.3,3-0.2
			c0.2,0,0,0.2,0.1,0.2c1.2,1.8,2.7,1.3,1.9-0.7c-0.1-0.3,0.7-1.6,0-2.1c0.4,0.1,1.1,0.8,1.4,1.1c-0.4-0.9-1.7-2.3-1.5-3.2
			c0.4,0.6,1.7,4.1,2.8,4.9c1,0.9,3.7,0.5,3.4-1.5c-0.1-0.7-1.1-1.2-1.7-1.7c0-0.1,0.3-0.6,0.2-0.7c0,0-0.1,0.2-0.1,0.2
			c-0.1-0.1,0.2-0.1,0.1-0.2c0-0.1,0.4,0,0.4-0.1c0.1-0.3-0.9-1.7-0.4-2.1c0.3,0.2,0.9,1.5,1.1,1.6c0.8-1.1,0-2.6-0.6-3.3
			c-0.2-0.2-0.7,0.1-0.9-0.2c0-2.3,0.4-4.4,0-5.3c0.9-3.1,6.6,2,6.1-3.1c0.9,0.3,3.3,0.3,4.2,0.9c-0.6-2.1-3.2-0.7-2.5-2.9
			c0.3,0.6,1,0.7,1.7,0.8c-0.1-0.1-0.2-0.7-0.4-1.6c0.1-0.2,0.2,0.2,0.2,0c0.1,0.2-0.5,0.2-0.4,0.6c0.1,0.6,0.9,0.6,1.1,0.5
			c0.5,1.1,0.9,1.6,1.6,1.6c0.3,0,0.9,0.2,1.2-0.1c1.4,2,2.7,3.8,3.7,5.5c0,0.3-0.4,0.6-0.3,1c0.1,1-0.2,3.9,1.3,2.7
			c0.3-0.2,0.7-0.1,0.7-0.5c1.3-0.8,2.4-1.8,3.4-1.2c0.6,1.2-0.4,3.6,0.6,4.8c0.7-0.3,0.2-1.8,0-2.4c0-0.1,1-0.4,1-0.5
			c0.8,0.6,2.1,1.1,3.1,1.7c0.5-1.1,0.1-2.9-0.7-3.2c-0.5-0.9-1-2-1-2.3c0.6,0.7,1.5,3.4,2.8,2.2c-0.2-1.2-0.4-3.9-0.2-6.4
			c0.3,0,0,0.6,0.2,0.6c0.4,0.1,1.2-0.1,1.2-0.1c1-0.1,1.6-0.8,1.2-1.9c-0.3-0.8-2.4-1.2-3.2-2c0.1-1,0.7-1.7,0.8-2.2
			c0.7,0.5,1,1.2,1.8,1.4c0.1-0.4-0.1-1.1,0.1-1.6c0.3-0.7,1.5-1.4,1.4-2.5c0.1-0.1-0.4-0.3-0.4-0.2c0.1-1.1-0.4-1.9-1.4-2.3
			c-0.2-0.9,0.1-2.4-0.2-3.4c-0.1-0.3-0.4-0.2-0.4-0.5c-0.1,0.1,0.4-0.7,0.4-0.5c-0.1-0.1,0.4,0.4,0.3,0.3c0-0.2-0.3-0.8-0.5-0.8
			c-0.1-0.3-0.7-0.2-0.8-0.5c0.1-0.3,0.1-0.5,0.3-0.7c1.2,0.2,1.7-1.5,1.2-2.1c0.2,0-0.1,0.5-0.1,0.6c0.1-0.6-0.9-1.5-1.4-2.5
			C216.2,122.2,213.8,120.3,213.1,119.3z M139.1,130.5c0,0,0-0.2,0-0.2c0,0,0.6,0.2,0.6,0.2C139.7,130.5,139.1,130.5,139.1,130.5z
			 M155.4,154.4c0,0-0.1-0.1-0.1-0.1c0,0,0.3-0.5,0.3-0.5C155.5,153.8,155.4,154.4,155.4,154.4z M151.9,144c0,0-0.1-0.2-0.1-0.2
			c0.1,0,0.8,0.3,0.8,0.4C152.5,144.2,152,143.9,151.9,144z M170.8,156.6c0.1-0.1,0.3-0.3,0.4-0.3
			C171.1,156.3,170.9,156.5,170.8,156.6z"/>
	</g>
</g>
<g class="st68">
	<g>
		<path class="st69" d="M233,153.4c0.7-1.1,0.4-10.4-2-14c-5.5,3.8-2.8,18.9-0.9,25.7c1.3-0.5,2.2-7.6,3.3-6.2c-1.1,0-1.4-0.4-1-1.3
			c0.6,0.1,1.2,0.3,1.7,0.6C234,157.1,233.8,154.4,233,153.4C233.1,153.3,233.6,154.2,233,153.4z"/>
	</g>
	<g>
		<path class="st69" d="M228.4,140c-0.6,0.3-0.7,2.4,0.3,2.7c0.9-5.4,0.1-4.6-0.9-9.2c1.4,0,2.2,1.1,3,0.5c-0.6-0.6-1.2-1.1-1.9-1.5
			c0.6,0,1.3-0.1,1.9-0.1c-0.7-3.7-4.4-4.1-3.4-7.7c-1.6-2.2-2.8,2.7-2.2,2.1c-1.9-1.1-3.3-8.2-8-8.4
			C218.7,125.5,226.7,135,228.4,140C228.5,140,228.4,139.9,228.4,140z"/>
	</g>
	<g>
		<path class="st69" d="M202,136.1c-2.4,4.4,6,12,8,6.1c0.5,0.8,1.2,1.4,2.1,1.7c0.2-0.4,1.5-3.6,1.8-3.8c4.3,5.7,3.5-12.7-1.2-7.1
			c0.5-3.6-4.9-12.3-9.9-10.2c0.6,1.2,1.5,1.9,2.8,2.2c-0.4,0.3-0.8,0.6-1.3,0.8c2.9,0,4.6,4.2,4,6.8c1.2,0.1-4.6-3.2-3.2-1.6
			c-0.1-1.5,0.2-3,0.1-4.5c-0.1,0-2.9,1.6-2.6,1c0.7,1.4,1.3,2.9,1.7,4.4c-0.6,0.3-2.9-3.2-3.2-1.1C200.9,131.6,196.4,137,202,136.1
			C200.9,138,200.5,136.4,202,136.1z"/>
	</g>
	<g>
		<path class="st69" d="M220.1,148.9c0.1,0,0.3,5.2,0.3,5.1c-1.3,0.9-2.3,0.5-3-1.2c-1.1,1.6,3.1,6.5-1.1,6.1
			c-1.9-6.8-9.4-2.3-12.1-5.2c0.3-0.2,1.6-0.9,1.2-1.5c-1.1,2.6-3.1-0.8-3.6,1.3c-0.2-0.3,2.6,6.1,1.6,6.8c-0.3-0.4-0.7-0.6-1.3-0.6
			c0.5-0.7,0.7-1.4,0.8-2.3c0,0.1-3.2,5.4-3.1,6.2c0.4-0.2,0.9-0.4,1.3-0.5c-3.3-3.7-0.5-2.6,0.2-8.7c-1,0.8-1.4,0.8-1.2-0.1
			c-1.7,0.7-3.3,1.5-4.9,2.4c0.9-0.4,1.5-1,1.8-1.9c-2.1-0.1-1.5-0.4-1.3-2.7c1,0.6,2.1,0.6,3.1,0.1c0.3-1-0.1-1.7-1-2.1
			c0.7-0.1,2.2,0.3,2.9-1.1c-1.7-0.6-5.1-1.3-5.3-4.6c-1.3-0.1-2.1,0.5-2.4,1.7c1-0.2-1.3-5.6-1.2-6.2c-1.5,0.1-5.8,0.7-4.5,3.6
			c-1.5-2.2-2.6,1.2-2.5,2.1c-1.5-1.1-4-2.9-4.9-3.6c-0.8-0.6-1.7-6-3.2-4.2c-0.2-4.7,1.8-5-2-8.3c1.8-1.3,1.3-4.3-2-4.6
			c-0.3,3.5,1.2,1.5-1.4,2.4c0.2-1.1,0.7-1.8,1.7-2.3c-2.2,1.4-3,0.6-2.4-2.4c-6-0.2,4.7,0.9-0.5-1.7c-1.6,1.1-3,2.4-4.2,4
			c-1-3.4-3.1-0.9-3.2-3.7c-0.2,1.6-1,2.7-2.4,3.2c-0.4-1.4-0.1-2.6,1.1-3.6c-9.4,2.4,0.1-2.8-3.3-3.3c0,0.8-2.5,4.3-2.2,3.7
			c-2.6-0.3-6.9,2.1-8.6,2.4c3.5-0.5,0.2,8.4,0.1,8.3c0.2-0.1,0.5-0.2,0.6-0.4c-0.5,0.8-0.2,1.1,0.8,1c0-0.1-1.7,1.5-1.8,0.9
			c0.1,1.5,2.6,1.1-0.1,2.1c0.7-1.1,1.5-0.2,2.4,2.8c-1.3,0-3.3,0.2-3.4,2.2c0-0.5,4.7,6.6,4.8,6.6c-2.8-0.5-6.8,2.2-3.4,4.7
			c1.8-2.5,3.2-1.4,5-1.7c0.2,3.7-3.6,0.7,0.2,6.1c0-4.3,3.3-2.6,5.5-2.6c-0.8,0.5-1.6,0.7-2.6,0.7c2.3,1.2,2.6,2.4,0.9,3.6
			c-2.2-0.9-1-2.8-2.8-0.1c-1.8-1.8-1-2.1-3.1-2c-1.5-1.6-1.1-2.8-1-4.1c-0.6,0.4-1.2,0.6-1.6,0.9c-0.6-0.5-5.2-3.1-6.4-2.8
			c4,1.8-1.6,3.3-1.9,3.4c0.6,1.5,1.9,4.8,0.8,4c0.9-0.1,0,0.3-0.2-0.4c-0.3,2.3-0.4,2.9-0.2,1.7c-0.7-0.3-2.4,2.6-2.6,0.1
			c-1.7-0.2-2.9-0.5-4.3-1.4c0.9-1.3,1.8-2.6,2.6-4c-2,2.5-3.6,3-4.9,1.4c1.2-1.4,8.6-3.7,7.2-6.3c0.7-0.6-5.2-2-5.2-2
			c-4-5.4-1.8,0.3-2-6.5c-0.1-4.4,4-6.8,2.4-12.8c-3.2,1.7-1.1,4.5-3.1,6c-1.2-2.3-1.8-10,0.8-10.1c-0.9-0.4,0.2,0.2,0.1-0.1
			c-0.3-0.8-0.9-1.1-1.6-1.2c0.7,0,0.8,0.2,0.3,0.7c1.4-0.6-3-8.9-3.5-9.6c0,1.4-0.5,2.5-1.5,3.4c-0.2,0.1-0.1-5.3-2-4.5
			c-0.1,0.4,1.6,2.9,1.5,3.5c-0.6,0-1.1,0-1.7,0.1c0.7,0.6,0.5,4-1.1,2.9c6.3-7.2-6.8-5.7-5.9-5.1c1.1,0.5,2.3,0.8,3.5,0.9
			c-0.3-1.5-5.8,2.2-6.6,3.4c-0.1-0.3-2.2-4.5-3.2-4.5c-1.6,0-0.6,2.5-0.6,3c0.6,1.3-5-2.3-4.6-2.6c-2.2,1.8-0.5,12.8-1.5,13.2
			c0-2.2-0.5-4.3-1.4-6.3c0.8,2,0.6,3.5-0.8,4.4c0.2-1.7-0.3-1.9-1.6-0.6c0,0,1.1,3,1.7,2.5c-6.5-5.6-0.9,3.5-1.6,4.5
			c-0.6-0.8-1.5-3.4-3.4-2.7c0,0,0.3,2.2-0.1,2.9c1.7,0,3.3-2,2.3,2c-1.9-0.3-1.7-2-3.9-2.4c0.3-0.2,0.2-0.1-0.2,0.3
			c3.2-5,0.2-12.1,2.2-15.1c1.2,0.5,5.2-4.2,5.7,1.6c2-1.6-0.8-6.1-0.8-7.9c0-0.6,8.3-3.8-0.5-1.1c0.7-0.4,0.6-0.2-0.2,0.5
			c9.1-0.3-8.3-2.9-4.7-0.6c0-1.6,0.7-2.8,2.2-3.5c-2.3,0.9-0.8-5.2,0.5-7.7c-6.6,7.8-10.3,19.1-15.6,26.4c-0.4-0.3-0.8-0.6-1.1-0.9
			c-1.1,1.6,0.2,7.8-0.8,8.9c-1-0.1-1.6-0.5-1.8-1.4c0.1-0.4,2.5-1.4,1.6-0.3c-0.4-0.5-0.7-0.9-1.1-1.4c-0.1-0.3-1,8.1,0.4,7.6
			c-0.2-0.5-0.3-1-0.5-1.5c0.9,2,1.9,1.6,3.1-1.3c0.8-0.5-0.1,6.3,0.3,5.9c-1.6-2.1,1.8,1.9,0.5,4.1c-2.4,0.7-2.4-6.8-3.2-3.5
			c-0.9-1.7-1.6-3.4-2.2-5.2c0.6,2,0.2,2.5-1.3,1.5c0.1,0.3-0.4,10.1-0.3,10.1c0-0.5,0.1-1.1,0.3-1.6c0.4-0.1-3.2,12-2.8,12.8
			c-0.5-1,1.5,3.5,1.1,3.1c-0.2-1.9,0.2,0.3-0.6-0.9c-2.5,2,8.8,25.8,8.5,27c1,0,0.5-0.2,1.4-1.5c3.3,5.3,1.3,4.1-0.6,4
			c0.5,0.2,1,0.4,1.6,0.5c-0.6,0.1-1,0.4-1.2,1.1c-0.5,0.1,10.3,8.9,10.4,9.2c-0.9-1.1-1.7-2.3-2.4-3.5c1.4-0.6,2.6,3,3.6,3.5
			c-1.1,0-1.1-0.5,0-1.4c0.7,1.5-2,5,0,6c0.9-2.1,2.5,0.9,4.3,2.2c-0.2-1.1-1.1-5.7-1.4-6.5c4.1,1.5,5.2,1.3,9.3,5.3
			c-3.9-3.9-0.1,7.4,0,7.7c2.2,4.8,4.6,6.6,8.6,8.9c-1.8-2.4,1.9,0.5,3.9,0.6c-0.1-3.5,0.2-3.2,0.5-5c-0.1,0.4,3.7-2,1.9-3.4
			c-0.8,0.2-1.6,0.5-2.4,0.8c-1.7-1.8-1.2-2.9,1.4-3.1c-0.1-1-9.2,1.1-7.2-2.8c0.6-1.1,4.6-2.7,5.7-1.9c0.1-2.8-3,0.1,0.2-1.4
			c-0.6-2.1-4.2-3.1-0.7-1.6c-0.2-1-0.1-2,0.1-3c2.8,0.7,5.2,5.7,2.9,7.3c1.6-1.1,4.7,0.2,5.9,1.7c-0.3,1-1,1.8-2,2.2
			c-2.2-2.4-0.2-1.1-1-2.9c3,1.7,2.2,5.2,5.2,6.6c0.6,0.3,13.2,0.5,14.8-1.3c-1.9,0.9,1.3-5,1-4.6c-1.1,0.2-2,0.7-2.7,1.6
			c1.4,1.7-0.8-11.9-0.2-9.7c0,0-5.8-1.2-6.6-1.6c1.4-0.3,2.8-0.8,4.1-1.4c0.4-1.6-2.1-0.9-2.7-1.6c0.9-0.6-5-9.5-7.6-8.5
			c-0.6,1.5-0.3,2.5,1,2.9c-2,4.9,0.4,4.6,1,9.7c-0.5-4.6-14.9-6.7-14.2-12.1c5.2-0.9,2.8-6-0.9-8.4c0.4,1,1.1,1.8,1.9,2.4
			c-2.6,1.3-1-1.6-3.6-1c0.3,6.2,2.5,1-0.7,1.4c-0.6,0.9-0.4,1.6,0.7,2.2c-3,1.9-13.4-9-9.2-6.6c-0.4-1-1.1-1.5-2.2-1.5
			c0.5-1.1,1.4-1.8,2.6-1.9c-0.4-3.5-3.8,1-4,1.8c0.6-0.6-4.6,0.5-4.3,0.7c-0.5-1.3-0.1-2.1,1.3-2.4c-0.9-0.4-4.6,0.1-5.3-0.8
			c1-0.7,1.9-1.5,2.6-2.4c-1.9,1.2-3.3,0.9-4.1-0.9c3.4-1.4-0.5,0.4-0.1-1.1c1,0.6,1.9,0.6,2.9,0c-0.8-1.6-1.3-3.2-1.6-5
			c0.9,0.8,1.9,1.4,3,1.9c0.6-1.3,1-2.6,1.2-4c1.8,3.2,1.5,7.2,4.1,9.3c0.9,0.7,8.2,1.3,7.9-0.7c0.2,0.3-5.1-0.7-5.2-0.7
			c0.1-0.1,2.1-1,2.1-1.1c0.6-1.7-3.3-0.7-3.6-0.7c-0.1-3.3,2.3-0.5,0.9-4.5c-0.6-1.7-1.5-2.2-3.1-5.1c3.3,3.9,0.7-3.9,1.9-2.9
			c-0.7-1.7,2.9,1.2,3.4,2c1.1-1.1,2-2.2,2.7-3.6c0,1.4-0.1,1.3-0.4-0.2c-0.1,0.1,3,1.6,2.4,0.6c0.1-4-3.6,3.8-1.6-3.2
			c-0.2,1.3-0.2,1.1-0.1-0.4c0.2,0.5,5.4,5.5,6.6,4.5c0,0-1.4-6.1-3.4-4.2c0.4-1.7,1.3-3,2.8-4.1c0.4,4.4,2.1,8,1.9,12.2
			c0.7,0.7,3.2-4.6,0.9-5.2c0,0.7,0.1,1.4,0.3,2.1c-0.8-0.1-1.5,0-2.3,0c0-1.9,0.6-3.5,1.6-5.1c-0.1,1.1,0.2,2.1,1,2.9
			c-0.1-2,0.1-4-0.2-6.1c0.9,1.5,1.1,3,0.7,4.6c3.7-2,0.4,4.1,1.6,3.5c-0.2-2,3.7-2.6,1.7-4.9c0.9,0.6,1.3,0.3,1.4-0.9
			c0,0.2,0.3,7.8,3.3,4.8c0.2-2.7,0.5-3.4,1.1-5.8c-1,0.3-0.7,5.7-0.4,5.6c-1.2,2.4,0.7,0.1-0.1,2.7c-1.1-0.2-2.1-0.6-3.2-1.1
			c1.1,2.1,6.1,2.9,5,0.3c-0.2,0,2.7,1.5-0.6,2.9c0.7,0.4,0.6,4.9,0.6,5.7c-4.3,1.3,1.8,5.1-2.3,6.7c0.7,0.4,1.2,1,1.7,1.7
			c-1,0.3-2,0.6-2.9,0.9c-0.5-1.1-1.5-2.7-0.1-0.8c-0.9,0-1.6-0.4-2.2-1.1c0.9-0.9,1.2-2.1,3.5-2.9c-0.1-0.3-4.2-4.3-4.6-4.4
			c1.1,2.7-1.3,2.4-2.8,1.1c-2.9,2.3,3.1,4.8,1.6,5.6c0.8,0.6-3-4.1-1.1,1.1c1.2-0.9,0.6-1.2-1.8-0.8c0.5,3.2,3.9,3.3,5.2,3.7
			c0.7,1-0.4,2.9,2.2,4.4c0.3-2.6,1.7-2,3.2-0.7c-0.3,0.9,1.2-7,2.5-0.8c1.1-0.6,3.6-3.7,3.7-5c0.8,0.9,1.7,1.7,2.8,2.2
			c-0.9-0.2,1.3-2.3,2.1-4.1c-2.6,5.9-8.3-9-3.5-5.4c1.2-2.4-3.4-1.4-3.5-1.4c-0.7-1.4,2.4-1.2,0.2-1.6c1.2,1.2,5.4-2.5,5.6-3.6
			c1.1,0.8,1.9,1.9,2.4,3.2c0.2-1.6,0-3.1-0.4-4.6c0.1,0,13.3,5,12.6,2.9c5.1,3.6,4.8-20.8,1.7-12.7c0.1-0.1-0.3-3-0.5-3.3
			c2.6,1.1,5.4,1.2,7.4,1.6c-0.5,1.7-0.1,2.5,1.3,2.6c3.1-3,2-3.3,5.9-1.8c-0.8,0.8-1.2,1.8-1.2,2.9c-0.4-1.4-2-2.4-3.2-1.7
			c2.6,5.9-2.2,1-2.9,5.3c1.5,0.2,5.7,8.1,5.5,8.3c-2.1,0.9-1.6,3.4-1.2,6.4c4.9-4.3,5.5,5,11.3,5.3c2.3,0.1,0.1-6.3,2.5-1.9
			c-0.3-1.2-0.4-2.4-0.2-3.6c0.3,1.8-0.3,6.5,2.7,6.7c3.7,0.2-1-8.2,2.5-4.2c2.9-2-2.2-5.8,2.9-8.8c1.5-0.9,7.6,0,9.1,1.9
			c-0.9-1-1.3-2.2-1.3-3.6c0.5,4.1,1.8-0.3,1.7-0.2c0.2,1.2,3.1,10,3.4,10.7c2.1,4.8,1.3-0.7,4.2,3.3c-0.6,1.5-0.9,3.1-1.2,4.6
			c3-0.1-1.1-6.5,4.2,0.4c1.8-1.8-0.3-3.7,0.4-5.7c-0.2,1.6,0.4,2.6,1.8,3.1c0.5-2.1,1.2-4.1,2.1-6.1c-0.2-0.1,2.7,3.7,2.9-0.3
			c-0.6-1.1-1.4-2.1-2.3-3c0,0,8.9-10.5,7.8-13.5C221.8,156.4,220.5,150.7,220.1,148.9C220,148.9,220.3,150,220.1,148.9z M148.4,132
			C148.6,131.8,149.7,132.4,148.4,132C148.4,132,148.5,132,148.4,132z M154.8,160.2C154.2,159.9,156.4,159.5,154.8,160.2
			C154.8,160.2,154.8,160.2,154.8,160.2z M155.4,149.2C155.4,149.5,156.4,149,155.4,149.2C155.4,149.2,155.4,149.2,155.4,149.2z
			 M168.1,167.9c0.1,0,0.3-0.1,0.4-0.2C168.4,167.8,168.2,167.9,168.1,167.9z"/>
	</g>
</g>
<g class="st70">
	
		<radialGradient id="SVGID_00000101823969777990543170000010663446098103944114_" cx="422.9321" cy="225.3973" r="6.4981" gradientTransform="matrix(-0.8206 0.5715 0.5715 0.8206 499.6554 -207.0862)" gradientUnits="userSpaceOnUse">
		<stop  offset="0.1091" style="stop-color:#FFFFFF"/>
		<stop  offset="1" style="stop-color:#393939"/>
	</radialGradient>
	<polygon style="fill:url(#SVGID_00000101823969777990543170000010663446098103944114_);" points="281.8,218.7 282,216.4 
		281.4,218.7 277.7,214.2 280.6,219.3 278.2,219 280.5,219.6 276.1,223.3 281.1,220.4 280.9,222.8 281.5,220.5 285.1,224.9 
		282.3,220 284.7,220.2 282.3,219.6 286.7,215.9 	"/>
	
		<radialGradient id="SVGID_00000112597678865227862410000010347051910100325772_" cx="581.7856" cy="76.7607" r="10.3884" gradientTransform="matrix(-0.8206 0.5715 0.5715 0.8206 499.6554 -207.0862)" gradientUnits="userSpaceOnUse">
		<stop  offset="0" style="stop-color:#FFFFFF"/>
		<stop  offset="2.528321e-02" style="stop-color:#E9E9E9"/>
		<stop  offset="9.280195e-02" style="stop-color:#B4B4B4"/>
		<stop  offset="0.1589" style="stop-color:#888888"/>
		<stop  offset="0.2223" style="stop-color:#666666"/>
		<stop  offset="0.282" style="stop-color:#4D4D4D"/>
		<stop  offset="0.3367" style="stop-color:#3E3E3E"/>
		<stop  offset="0.3818" style="stop-color:#393939"/>
	</radialGradient>
	<polygon style="fill:url(#SVGID_00000112597678865227862410000010347051910100325772_);" points="66.7,187.1 67.1,183.3 66.1,187 
		60.2,179.9 64.8,187.9 61,187.5 64.7,188.5 57.6,194.3 65.6,189.7 65.2,193.6 66.2,189.9 72,196.9 67.5,189 71.3,189.4 67.5,188.4 
		74.6,182.5 	"/>
	
		<radialGradient id="SVGID_00000044172196081985579450000016902540380507403711_" cx="628.3045" cy="74.9519" r="10.3886" gradientTransform="matrix(-0.8206 0.5715 0.5715 0.8206 499.6554 -207.0862)" gradientUnits="userSpaceOnUse">
		<stop  offset="0" style="stop-color:#FFFFFF"/>
		<stop  offset="2.528321e-02" style="stop-color:#E9E9E9"/>
		<stop  offset="9.280195e-02" style="stop-color:#B4B4B4"/>
		<stop  offset="0.1589" style="stop-color:#888888"/>
		<stop  offset="0.2223" style="stop-color:#666666"/>
		<stop  offset="0.282" style="stop-color:#4D4D4D"/>
		<stop  offset="0.3367" style="stop-color:#3E3E3E"/>
		<stop  offset="0.3818" style="stop-color:#393939"/>
	</radialGradient>
	<polygon style="fill:url(#SVGID_00000044172196081985579450000016902540380507403711_);" points="27.9,208.4 26.9,212.1 21,205 
		25.6,213 21.8,212.6 25.4,213.6 18.4,219.4 26.4,214.8 26,218.7 27,215 32.8,222 28.2,214.1 32.1,214.5 28.3,213.5 35.4,207.6 
		27.5,212.2 	"/>
	
		<radialGradient id="SVGID_00000052077623627009657940000010178516292633346996_" cx="454.9287" cy="175.4983" r="8.9622" gradientTransform="matrix(-0.8206 0.5715 0.5715 0.8206 499.6554 -207.0862)" gradientUnits="userSpaceOnUse">
		<stop  offset="0" style="stop-color:#FFFFFF"/>
		<stop  offset="2.528321e-02" style="stop-color:#E9E9E9"/>
		<stop  offset="9.280195e-02" style="stop-color:#B4B4B4"/>
		<stop  offset="0.1589" style="stop-color:#888888"/>
		<stop  offset="0.2223" style="stop-color:#666666"/>
		<stop  offset="0.282" style="stop-color:#4D4D4D"/>
		<stop  offset="0.3367" style="stop-color:#3E3E3E"/>
		<stop  offset="0.3818" style="stop-color:#393939"/>
	</radialGradient>
	<polygon style="fill:url(#SVGID_00000052077623627009657940000010178516292633346996_);" points="227.2,195.8 227.5,192.5 
		226.6,195.7 221.5,189.6 225.5,196.5 222.2,196.2 225.4,197 219.3,202 226.2,198 225.9,201.4 226.7,198.2 231.8,204.3 227.8,197.4 
		231.1,197.8 227.8,196.9 234,191.8 	"/>
	
		<radialGradient id="SVGID_00000028321742580252124860000016115279325977952701_" cx="552.938" cy="104.2347" r="2.2952" gradientTransform="matrix(-0.8206 0.5715 0.5715 0.8206 499.6554 -207.0862)" gradientUnits="userSpaceOnUse">
		<stop  offset="0" style="stop-color:#FFFFFF"/>
		<stop  offset="2.528321e-02" style="stop-color:#E9E9E9"/>
		<stop  offset="9.280195e-02" style="stop-color:#B4B4B4"/>
		<stop  offset="0.1589" style="stop-color:#888888"/>
		<stop  offset="0.2223" style="stop-color:#666666"/>
		<stop  offset="0.282" style="stop-color:#4D4D4D"/>
		<stop  offset="0.3367" style="stop-color:#3E3E3E"/>
		<stop  offset="0.3818" style="stop-color:#393939"/>
	</radialGradient>
	<polygon style="fill:url(#SVGID_00000028321742580252124860000016115279325977952701_);" points="105.8,194.6 106.6,194.7 
		105.8,194.4 107.4,193.1 105.6,194.2 105.7,193.3 105.5,194.1 104.2,192.6 105.2,194.3 104.4,194.3 105.2,194.5 103.6,195.8 
		105.4,194.7 105.3,195.6 105.5,194.8 106.8,196.3 	"/>
	
		<radialGradient id="SVGID_00000129167640923817729450000000855377907854924733_" cx="487.6387" cy="147.4163" r="2.2952" gradientTransform="matrix(-0.8206 0.5715 0.5715 0.8206 499.6554 -207.0862)" gradientUnits="userSpaceOnUse">
		<stop  offset="0" style="stop-color:#FFFFFF"/>
		<stop  offset="2.528321e-02" style="stop-color:#E9E9E9"/>
		<stop  offset="9.280195e-02" style="stop-color:#B4B4B4"/>
		<stop  offset="0.1589" style="stop-color:#888888"/>
		<stop  offset="0.2223" style="stop-color:#666666"/>
		<stop  offset="0.282" style="stop-color:#4D4D4D"/>
		<stop  offset="0.3367" style="stop-color:#3E3E3E"/>
		<stop  offset="0.3818" style="stop-color:#393939"/>
	</radialGradient>
	<polygon style="fill:url(#SVGID_00000129167640923817729450000000855377907854924733_);" points="184,192.7 184.9,192.8 
		184.1,192.6 185.6,191.3 183.9,192.3 184,191.4 183.7,192.3 182.4,190.7 183.5,192.5 182.6,192.4 183.4,192.6 181.9,193.9 
		183.6,192.9 183.5,193.7 183.8,192.9 185.1,194.5 	"/>
	
		<radialGradient id="SVGID_00000162348002008476682790000010928357689680599981_" cx="547.2251" cy="141.8291" r="2.2953" gradientTransform="matrix(-0.8206 0.5715 0.5715 0.8206 499.6554 -207.0862)" gradientUnits="userSpaceOnUse">
		<stop  offset="0" style="stop-color:#FFFFFF"/>
		<stop  offset="2.528321e-02" style="stop-color:#E9E9E9"/>
		<stop  offset="9.280195e-02" style="stop-color:#B4B4B4"/>
		<stop  offset="0.1589" style="stop-color:#888888"/>
		<stop  offset="0.2223" style="stop-color:#666666"/>
		<stop  offset="0.282" style="stop-color:#4D4D4D"/>
		<stop  offset="0.3367" style="stop-color:#3E3E3E"/>
		<stop  offset="0.3818" style="stop-color:#393939"/>
	</radialGradient>
	<polygon style="fill:url(#SVGID_00000162348002008476682790000010928357689680599981_);" points="132,222.2 132.8,222.3 132,222 
		133.5,220.7 131.8,221.7 131.9,220.9 131.6,221.7 130.3,220.2 131.4,221.9 130.5,221.8 131.3,222.1 129.8,223.3 131.5,222.3 
		131.5,223.2 131.7,222.4 133,223.9 	"/>
	
		<radialGradient id="SVGID_00000103225462580768560370000011091927045094981780_" cx="524.6567" cy="171.402" r="7.4154" gradientTransform="matrix(-0.8206 0.5715 0.5715 0.8206 499.6554 -207.0862)" gradientUnits="userSpaceOnUse">
		<stop  offset="0" style="stop-color:#FFFFFF"/>
		<stop  offset="2.528321e-02" style="stop-color:#E9E9E9"/>
		<stop  offset="9.280195e-02" style="stop-color:#B4B4B4"/>
		<stop  offset="0.1589" style="stop-color:#888888"/>
		<stop  offset="0.2223" style="stop-color:#666666"/>
		<stop  offset="0.282" style="stop-color:#4D4D4D"/>
		<stop  offset="0.3367" style="stop-color:#3E3E3E"/>
		<stop  offset="0.3818" style="stop-color:#393939"/>
	</radialGradient>
	<polygon style="fill:url(#SVGID_00000103225462580768560370000011091927045094981780_);" points="167.5,232.5 167.8,229.8 
		167.1,232.4 162.8,227.3 166.2,233 163.4,232.8 166,233.5 161,237.6 166.7,234.3 166.4,237.1 167.2,234.5 171.3,239.5 168,233.8 
		170.8,234.1 168.1,233.4 173.2,229.2 	"/>
</g>
<g>
	<defs>
		<path id="SVGID_00000079474131077919764250000007075578084187317897_" d="M469.5,145.7L469.5,145.7c0,18.2-14.8,33-33,33h-95
			c-18.2,0-33-14.8-33-33l0,0c0-18.2,14.8-33,33-33h95C454.7,112.7,469.5,127.5,469.5,145.7z M464.5,102.2c0,20.7-17,37.5-38,37.5
			c-21,0-38-16.8-38-37.5s17-37.5,38-37.5C447.5,64.7,464.5,81.5,464.5,102.2z M412.5,127.2c0,20.7-17,37.5-38,37.5
			c-21,0-38-16.8-38-37.5s17-37.5,38-37.5C395.5,89.7,412.5,106.5,412.5,127.2z"/>
	</defs>
	
		<radialGradient id="SVGID_00000153694494027755363670000015511419288183510205_" cx="444.8297" cy="121.7393" r="69.7469" gradientTransform="matrix(-1 0 0 1 833.8383 0)" gradientUnits="userSpaceOnUse">
		<stop  offset="0" style="stop-color:#12597D"/>
		<stop  offset="0.2144" style="stop-color:#125679"/>
		<stop  offset="0.4108" style="stop-color:#104E6E"/>
		<stop  offset="0.6003" style="stop-color:#0E415C"/>
		<stop  offset="0.7853" style="stop-color:#0A2E42"/>
		<stop  offset="0.9657" style="stop-color:#061720"/>
		<stop  offset="0.976" style="stop-color:#06151E"/>
	</radialGradient>
	
		<use xlink:href="#SVGID_00000079474131077919764250000007075578084187317897_"  style="overflow:visible;fill:url(#SVGID_00000153694494027755363670000015511419288183510205_);"/>
	<clipPath id="SVGID_00000093869883647311477860000008244083235789463970_">
		<use xlink:href="#SVGID_00000079474131077919764250000007075578084187317897_"  style="overflow:visible;"/>
	</clipPath>
	
		<radialGradient id="SVGID_00000008150030712505608860000012576626727653642893_" cx="453.0465" cy="346.3401" r="349.793" gradientTransform="matrix(-1.4371 0 0 1.6104 917.6608 -44.1525)" gradientUnits="userSpaceOnUse">
		<stop  offset="0" style="stop-color:#12597D"/>
		<stop  offset="0.2144" style="stop-color:#125679"/>
		<stop  offset="0.4108" style="stop-color:#104E6E"/>
		<stop  offset="0.6003" style="stop-color:#0E415C"/>
		<stop  offset="0.7853" style="stop-color:#0A2E42"/>
		<stop  offset="0.9657" style="stop-color:#061720"/>
		<stop  offset="0.976" style="stop-color:#06151E"/>
	</radialGradient>
	
		<rect x="45.5" y="21" style="clip-path:url(#SVGID_00000093869883647311477860000008244083235789463970_);fill:url(#SVGID_00000008150030712505608860000012576626727653642893_);" width="450" height="450"/>
</g>
<g>
	<defs>
		<path id="Intersection_2" d="M0,259.4V134.6c17.3,1.9,31.7,13.9,36.3,30.4c21.4-9.3,46.5,0.1,56,21c0.2,0.5,0.4,1,0.6,1.4
			c20.3,1.1,35.8,18.1,34.6,38c-1.1,19.1-17.2,34-36.7,34H0z"/>
	</defs>
	<clipPath id="Intersection_2_00000044893524658740673620000001963096662132649127_">
		<use xlink:href="#Intersection_2"  style="overflow:visible;"/>
	</clipPath>
	
		<radialGradient id="SVGID_00000098201241381212454160000016834262181866097058_" cx="98.6167" cy="269.9876" r="349.793" gradientTransform="matrix(1.4676 0 0 1.6104 -88.313 -44.1525)" gradientUnits="userSpaceOnUse">
		<stop  offset="0" style="stop-color:#12597D"/>
		<stop  offset="7.856965e-02" style="stop-color:#105071"/>
		<stop  offset="0.3462" style="stop-color:#0C374D"/>
		<stop  offset="0.597" style="stop-color:#092433"/>
		<stop  offset="0.8223" style="stop-color:#071923"/>
		<stop  offset="1" style="stop-color:#06151E"/>
	</radialGradient>
	
		<rect x="-177.3" y="-102" style="clip-path:url(#Intersection_2_00000044893524658740673620000001963096662132649127_);fill:url(#SVGID_00000098201241381212454160000016834262181866097058_);" width="459.6" height="450"/>
</g>
</svg>
